<svg id="efdaede2-41f7-4e54-9109-40e2f763e4d5" data-name="main" xmlns="http://www.w3.org/2000/svg" viewBox="0 0 450 450"><path d="M399.32,214.72C401.63,383.46,306,456,217,406.52c-120-66.76-182.36-85.87-182.36-191.8,0-58.32,41.73-70.43,80.79-105.61,31.88-28.71,61.49-64,101.57-86.18,46.16-25.49,119.78,4.81,148.88,25.49C414.36,82.89,398.42,148.53,399.32,214.72Z" style="fill:#f5f3f9"/><path d="M261.69,37.56H247.52V23.39A9.45,9.45,0,0,0,238.07,14h-42.5a9.45,9.45,0,0,0-9.44,9.44V47a9.46,9.46,0,0,0,9.44,9.45h4.73v7.67a1.76,1.76,0,0,0,1.77,1.77,1.72,1.72,0,0,0,1.05-.35l11.34-6.42V70.61a9.46,9.46,0,0,0,9.45,9.45h14.16l16.07,9.09a1.86,1.86,0,0,0,1.05.35A1.76,1.76,0,0,0,257,87.73V80.06h4.73a9.46,9.46,0,0,0,9.44-9.45V47A9.45,9.45,0,0,0,261.69,37.56Z" style="fill:#fff"/><path d="M261.69,37.56H247.52V23.39A9.45,9.45,0,0,0,238.07,14h-42.5a9.45,9.45,0,0,0-9.44,9.44V47a9.46,9.46,0,0,0,9.44,9.45h4.73v7.67a1.76,1.76,0,0,0,1.77,1.77,1.72,1.72,0,0,0,1.05-.35l11.34-6.42V70.61a9.46,9.46,0,0,0,9.45,9.45h14.16l16.07,9.09a1.86,1.86,0,0,0,1.05.35A1.76,1.76,0,0,0,257,87.73V80.06h4.73a9.46,9.46,0,0,0,9.44-9.45V47A9.45,9.45,0,0,0,261.69,37.56ZM195.57,51.72A4.74,4.74,0,0,1,190.85,47V23.39a4.74,4.74,0,0,1,4.72-4.72h42.5a4.74,4.74,0,0,1,4.73,4.72V47a4.74,4.74,0,0,1-4.73,4.72H218l-1.08.62L205,59V51.72Zm70.84,18.89a4.74,4.74,0,0,1-4.72,4.72h-9.45v7.32L240.41,76l-1.08-.62H223.91a4.73,4.73,0,0,1-4.72-4.72V56.45h18.88A9.46,9.46,0,0,0,247.52,47V42.28h14.17A4.74,4.74,0,0,1,266.41,47Z" style="fill:#b9accf"/><path d="M230.08,282.23a11.23,11.23,0,0,1-1.88-.15,18.27,18.27,0,0,1-7.15-2.49c-3-1.92-6-3.93-8.87-5.88-4-2.67-8.06-5.44-12.16-7.92-11.26-6.84-17-17.35-17.12-31.24-.09-11.83-.07-23.85-.05-35.47q0-7.11,0-14.22c0-8,5.56-13.52,13.52-13.54,7.77,0,15.67,0,23.31,0h19c7.75,0,15.76,0,23.64,0h.06c5.51,0,9.85,2.56,12.23,7.19a12.7,12.7,0,0,1,1.39,5.6c0,4.42,0,8.92.06,13.27.08,12.83.16,26.09-.15,39.16-.29,12.41-5.91,22.35-16.24,28.74-5,3.11-10,6.5-14.9,9.79-1.75,1.18-3.49,2.36-5.25,3.53l-.15.11C237.08,280.21,234.06,282.23,230.08,282.23Zm-19.65-99.92c-4.66,0-9.36,0-14,0-1.92,0-2.54.62-2.54,2.53q0,7.13,0,14.24c0,11.6,0,23.59,0,35.37.07,10.09,3.83,17.05,11.82,21.91,4.33,2.62,8.54,5.46,12.61,8.21,2.82,1.9,5.75,3.87,8.64,5.72a7.66,7.66,0,0,0,2.93.9c.66.1,2-.8,3.33-1.68l.16-.11q2.61-1.74,5.2-3.5c5-3.35,10.07-6.81,15.28-10,7.21-4.46,10.82-10.89,11-19.64.31-12.91.23-26.09.15-38.83,0-4.36-.05-8.87-.06-13.31a1.92,1.92,0,0,0-.18-.6c-.32-.62-.62-1.21-2.42-1.21h0c-7.9,0-15.93,0-23.69,0H210.43Zm38.26,44.61a.48.48,0,0,1,.4-.31l12.84-2.42c.3-.06.6-.14,1-.23l-.41-.22-9.63-4.54c-1-.45-1.88-.93-2.83-1.39a1.3,1.3,0,0,1-.71-.92c-.35-1.31-.75-2.61-1.16-3.9a.56.56,0,0,1,.1-.63c2-2.51,4.06-5,6.09-7.54.11-.12.2-.26.29-.38a10.84,10.84,0,0,0-1.58.27c-2.89.68-5.78,1.36-8.67,2a.47.47,0,0,1-.39-.06c-.68-.63-1.35-1.27-2-1.92a.65.65,0,0,1-.15-.48c.15-1.43.32-2.86.49-4.29.29-2.43.58-4.85.86-7.28.11-.88.2-1.77.31-2.76-.24.22-.41.37-.56.53q-4.56,5-9.09,9.89a1.23,1.23,0,0,1-1.18.49c-1.37-.14-2.76-.17-4.14-.23a.59.59,0,0,1-.58-.35q-2.94-5.47-5.91-10.93c-.06-.12-.13-.23-.24-.43a4.24,4.24,0,0,0-.1.49c-.37,3.08-.73,6.16-1.1,9.24-.17,1.36-.35,2.72-.55,4.07a.87.87,0,0,1-.35.51c-.58.4-1.19.76-1.77,1.16a.62.62,0,0,1-.71.05l-11.12-5.14-.41-.16c.33.61.6,1.13.89,1.65q2.68,4.8,5.38,9.58a.71.71,0,0,1,0,.73c-.3.63-.6,1.26-.85,1.91a.62.62,0,0,1-.52.45l-12,2.73c-.92.22-1.85.42-2.85.64l.34.17,2.62,1.18,10.66,4.74c.18.08.35.14.41.4a20.92,20.92,0,0,0,.71,3.06,1.83,1.83,0,0,1-.48,2.06c-2.6,2.87-5.17,5.77-7.74,8.66l-1.17,1.32.65-.12,13.92-2.94a.64.64,0,0,1,.46.11c.6.45,1.16,1,1.78,1.39a.94.94,0,0,1,.45.94c-.09,1.68-.16,3.35-.26,5-.14,2.25-.29,4.49-.43,6.73l.07,0,.35-.4c2.32-2.87,4.65-5.74,7-8.61a.69.69,0,0,1,.73-.31,15.91,15.91,0,0,0,2.38.27,1.34,1.34,0,0,1,1.31.79c2.55,4.17,5.13,8.32,7.7,12.47l.31.42a1.62,1.62,0,0,0,.11-.54q.18-6,.37-12c0-.91.09-1.81.16-2.71a.55.55,0,0,1,.22-.37c1-.62,2.09-1.2,3.11-1.84a1,1,0,0,1,1.07-.08c2.63,1.2,5.28,2.37,7.92,3.56l.45.19.07-.07c-.12-.3-.22-.61-.36-.9l-3.84-7.92a.61.61,0,0,1,0-.46C247.39,229.71,248.05,228.32,248.69,226.92Zm-29-13.35a1.91,1.91,0,1,1,3.81,0,1.8,1.8,0,0,1-1.9,1.85A1.86,1.86,0,0,1,219.68,213.57Zm8.11,14.91a3,3,0,0,1-2.71,1.78,3.28,3.28,0,0,1-2.61-1.08,2.81,2.81,0,0,1,.15-4.05,3.3,3.3,0,0,1,4.8.24A2.71,2.71,0,0,1,227.79,228.48Zm6.89-8.48a2.49,2.49,0,0,1-2.55-2.49,2.62,2.62,0,0,1,2.6-2.58,2.51,2.51,0,0,1,2.47,2.53A2.45,2.45,0,0,1,234.68,220Z" style="fill:#35264e"/><path d="M130.75,68.79H65.45a3.38,3.38,0,0,0-3.38,3.37v1.13H56.44a3.37,3.37,0,0,0-3.37,3.38v39.4a6.76,6.76,0,0,0,6.75,6.76h70.93a3.39,3.39,0,0,0,3.38-3.38V72.16A3.38,3.38,0,0,0,130.75,68.79Z" style="fill:#fff"/><path d="M130.75,68.79H65.45a3.38,3.38,0,0,0-3.38,3.37v1.13H56.44a3.37,3.37,0,0,0-3.37,3.38v39.4a6.76,6.76,0,0,0,6.75,6.76h70.93a3.39,3.39,0,0,0,3.38-3.38V72.16A3.38,3.38,0,0,0,130.75,68.79ZM57.57,116.07V77.79h4.5v38.28a2.25,2.25,0,1,1-4.5,0Zm72.06,2.26H66.19a6.72,6.72,0,0,0,.39-2.26V73.29h63.05ZM72.77,104.81H96.41a1.68,1.68,0,0,0,1.69-1.68V79.48a1.69,1.69,0,0,0-1.69-1.69H72.77a1.69,1.69,0,0,0-1.69,1.69v23.65A1.69,1.69,0,0,0,72.77,104.81ZM75.58,82.3h18v18h-18Zm-4.5,29.83V111a1.69,1.69,0,0,1,1.69-1.69H96.41A1.68,1.68,0,0,1,98.1,111v1.12a1.68,1.68,0,0,1-1.69,1.69H72.77A1.69,1.69,0,0,1,71.08,112.13Zm31.53,0V111a1.68,1.68,0,0,1,1.68-1.69h19.14a1.68,1.68,0,0,1,1.69,1.69v1.12a1.68,1.68,0,0,1-1.69,1.69H104.29A1.68,1.68,0,0,1,102.61,112.13Zm0-9V102a1.69,1.69,0,0,1,1.68-1.69h19.14a1.69,1.69,0,0,1,1.69,1.69v1.13a1.68,1.68,0,0,1-1.69,1.68H104.29A1.68,1.68,0,0,1,102.61,103.13Zm0-18V84a1.68,1.68,0,0,1,1.68-1.69h19.14A1.68,1.68,0,0,1,125.12,84v1.12a1.69,1.69,0,0,1-1.69,1.69H104.29A1.69,1.69,0,0,1,102.61,85.11Zm0,9V93a1.69,1.69,0,0,1,1.68-1.69h19.14A1.69,1.69,0,0,1,125.12,93v1.13a1.69,1.69,0,0,1-1.69,1.69H104.29A1.69,1.69,0,0,1,102.61,94.12Z" style="fill:#b9accf"/><circle cx="121.89" cy="305.78" r="9.42" style="fill:#35264e"/><path d="M124.51,296.62a9.42,9.42,0,0,1,8.29,13.89,9.42,9.42,0,1,0-14.71-11.76,8.81,8.81,0,0,0-.93,1.41A9.39,9.39,0,0,1,124.51,296.62Z" style="fill:#35264e"/><circle cx="104.29" cy="278.09" r="27.67" style="fill:#35264e"/><path d="M82.57,260.93a27.65,27.65,0,0,1,38.34-2.9c-.22-.22-.45-.44-.68-.64a27.66,27.66,0,1,0-36.76,41.35c.23.21.47.4.71.6A27.66,27.66,0,0,1,82.57,260.93Z" style="fill:#35264e"/><circle cx="104.05" cy="287.7" r="17.82" style="fill:#a0616a"/><path d="M91.39,293.33S93.74,314.9,90,317.25s21.57,5.62,21.57,5.62-3.75-23.44,5.63-29.54Z" style="fill:#a0616a"/><path d="M113.9,313.49s7-3.26-3.07-2.09a36.41,36.41,0,0,1-18.74-3.3s-3-3.05-3.51.24,1.4,9.37-8.91,10.31-19.7-1.87-23.45,5.16-1.87,37.51-1.87,37.51,7,25.32,12.66,29.08S121.87,389,121.87,389l14.07-25.32V334.13s-1.88-10.32-15-7.51c0,0-8.44-1.87-8-6.09S113.9,313.49,113.9,313.49Z" style="fill:#dcd6e7"/><path d="M68.87,408.31c.29-1.26.48-2,.48-2l-.15-1-1.54-10.49L67,390.39c5.62-2.34,7-13.13,7-13.13l.21-.12,1-.58h0l3.45-2.07.07,0,1.39.93L83,377.26a33.26,33.26,0,0,0,26.19,6,29.17,29.17,0,0,0,6.16-1.78l6.83-2.28.21-.07.21,0,4,.61h.07l.33,0-.92,6.4-1.35,9.31c3.55,1.88,6.7,5.41,9.46,9.76.61,1,1.21,2,1.78,3,.74,1.35,1.46,2.75,2.13,4.18.09.17.17.35.25.52.26.56.52,1.13.77,1.7H67.63c.09-.57.18-1.12.27-1.64a.13.13,0,0,0,0-.06c0-.18.07-.35.1-.52C68.32,410.79,68.63,409.36,68.87,408.31Z" style="fill:#2f2e41"/><path d="M66.07,318.18a36,36,0,0,1,3.28,21.1C67.48,351,75,380.08,75,380.08l5.63-1.41s-3.75-24.38-2.82-30S78.73,321,74,318.18,66.07,318.18,66.07,318.18Z" style="fill:#b9accf"/><path d="M120.6,327.93l2,51.91,3.75,2.35s5.4-57,2.58-57h-5.72a2.57,2.57,0,0,0-2.58,2.58Z" style="fill:#b9accf"/><circle cx="77.56" cy="376.56" r="2.34" style="fill:#6c63ff"/><circle cx="124.45" cy="378.91" r="2.34" style="fill:#6c63ff"/><polygon points="88.81 265.43 88.81 283.25 92.94 283.25 98.19 277.62 97.49 283.25 115.73 283.25 114.6 277.62 116.85 283.25 119.76 283.25 119.76 265.43 88.81 265.43" style="fill:#35264e"/><ellipse cx="86" cy="283.95" rx="1.41" ry="2.58" style="fill:#a0616a"/><ellipse cx="122.1" cy="283.95" rx="1.41" ry="2.58" style="fill:#a0616a"/><path d="M131.72,378.67s-21.34-4-22.74,3.05,23.68,4,23.68,4Z" style="fill:#a0616a"/><path d="M131.25,330.38S182.36,371.17,173,381s-45,7-45,7l2.34-11.72L150.94,374l-10.31-10.31-9.38.94Z" style="fill:#dcd6e7"/><path d="M55.75,398.37l6.57,5.15S67,418.06,74,413.84s-6.56-19.22-6.56-19.22l-8-2.82Z" style="fill:#a0616a"/><path d="M62.32,322.87l-6.55,2S10.27,358.51,8.4,367.89s8.9,14.53,8.9,14.53l40.8,19.23,4.22-11.25-19.23-9.85s1.41-2.82-4.22-3.28-6.56-6.57-6.56-6.57,11.25-17.35,17.35-13.6,8,6.57,8,6.57Z" style="fill:#dcd6e7"/><path d="M155.7,409.92v1.57a3.4,3.4,0,0,1-.24,1.26,3.54,3.54,0,0,1-.25.52,3.49,3.49,0,0,1-3,1.7H36.67a3.5,3.5,0,0,1-3-1.7,3.54,3.54,0,0,1-.25-.52,3.2,3.2,0,0,1-.23-1.26v-1.57a3.47,3.47,0,0,1,3.47-3.47h6.66v-.74a.15.15,0,0,1,.15-.14H47a.15.15,0,0,1,.15.14h0v.74h2.17v-.74a.14.14,0,0,1,.14-.14h3.48a.14.14,0,0,1,.14.14h0v.74h2.18v-.74a.14.14,0,0,1,.14-.14h3.48a.14.14,0,0,1,.14.14h0v.74h2.17v-.74a.15.15,0,0,1,.15-.14h3.47a.15.15,0,0,1,.15.14h0v.74h2.17v-.74a.14.14,0,0,1,.14-.14H70.7a.14.14,0,0,1,.14.14h0v.74H73v-.74a.14.14,0,0,1,.14-.14h3.48a.14.14,0,0,1,.14.14h0v.74H79v-.74a.15.15,0,0,1,.15-.14h27.22a.15.15,0,0,1,.15.14h0v.74h2.17v-.74a.14.14,0,0,1,.14-.14h3.48a.14.14,0,0,1,.14.14v.74h2.18v-.74a.14.14,0,0,1,.14-.14h3.48a.14.14,0,0,1,.14.14h0v.74h2.17v-.74a.15.15,0,0,1,.15-.14h3.47a.15.15,0,0,1,.15.14h0v.74h2.17v-.74a.14.14,0,0,1,.14-.14h3.48a.14.14,0,0,1,.14.14v.74h2.18v-.74a.14.14,0,0,1,.14-.14H136a.14.14,0,0,1,.14.14h0v.74h2.17v-.74a.15.15,0,0,1,.15-.14h3.47a.15.15,0,0,1,.15.14h0v.74h10.13a3.47,3.47,0,0,1,3.48,3.47Z" style="fill:#1b1327"/><path d="M146.39,343.77H103.32v-.89H83.79v.89H40.55a2.92,2.92,0,0,0-2.92,2.91v59a2.91,2.91,0,0,0,2.92,2.91H146.39a2.91,2.91,0,0,0,2.92-2.91v-59A2.92,2.92,0,0,0,146.39,343.77Z" style="fill:#35264e"/><circle cx="374.6" cy="287.04" r="20.4" style="fill:#efc1a8"/><path d="M359.37,297.24s3.85,29-2.07,32.23S392.49,333,392.49,333s-9.17-25.13-5-32.82Z" style="fill:#efc1a8"/><path d="M422.5,333.17l-3.42,15.56-7.23,32.93-.21,1.8-2.5,20.88-1.66,13.87-1.11,9.31c-6.76,3.48-11.67,5.88-11.67,5.88s-.42-2.11-1.1-4.82c-4.74,1.42-13.53,3.79-21,4.26,2.71,3,4,5.86,2.27,8-5.1,6.32-26.15-6.91-33.52-11.85a20.36,20.36,0,0,0-.19,3.57l-5.64-4.33.56-10,.94-16.87,1.18-21.16a23.25,23.25,0,0,1-.93-2.78c-1.73-6.14-3.82-18.39-5.43-28.67-1.29-8.27-2.26-15.26-2.47-16.75,0-.19,0-.29,0-.29l31.19-13.78c2.22,5.14,12.57,6.68,12.57,6.68a34.71,34.71,0,0,0,15.3-5.11Z" style="fill:#dcd6e7"/><path d="M397.07,427.49s-1.32.45-3.47,1.09c-4.74,1.42-13.53,3.79-21,4.26-6.41.41-11.82-.58-12.82-4.76a4.42,4.42,0,0,1,1.49-4.49c3.92-3.63,14.15-4.94,22.27-5.38,2.29-.13,4.41-.19,6.17-.21,3,0,5,0,5,0l.05.19Z" style="fill:#ffb8b8"/><path d="M357.63,267.75l-3.82-1.53s8-8.78,19.08-8l-3.13-3.43s7.63-3.06,14.57,5c3.65,4.21,7.86,9.17,10.49,14.75h4.09l-1.71,3.75,6,3.76-6.12-.68a21,21,0,0,1,.16,6.23,8.05,8.05,0,0,1-2.95,5.27h0s-4.73-9.79-4.73-11.32v3.82s-3.81-3.44-3.81-5.73l-2.08,2.67-1-4.2-12.84,4.2,2.09-3.43-8,1.14,3.12-4.2s-9,5-9.36,9.17a20.12,20.12,0,0,1-3,8.17S347.57,273.47,357.63,267.75Z" style="fill:#35264e"/><path d="M444.67,404.72c-2.08,2.25-7.22,5.64-13.47,9.32-2.32,1.36-4.79,2.77-7.31,4.17-6,3.34-12.32,6.64-17.52,9.31-6.76,3.48-11.67,5.88-11.67,5.88s-.42-2.11-1.1-4.82c-.91-3.62-2.28-8.3-3.71-10.37l-.15-.21a1.76,1.76,0,0,0-1.24-.86l20.64-12.8,8.92-5.53-6.42-15.35-8.07-19.25,4.87-15.48,4.89-15.56h9.17s3,6.62,6.91,15.86q.87,2.07,1.79,4.31C439.19,372.76,449.14,399.88,444.67,404.72Z" style="fill:#dcd6e7"/><path d="M374.9,440.79c-5.1,6.31-26.15-6.91-33.52-11.85-1.6-1.07-2.56-1.75-2.56-1.75l6.74-9,2.13-2.85s1.91,1,4.73,2.66l.31.19c2.44,1.43,5.49,3.29,8.57,5.38a64.12,64.12,0,0,1,11.33,9.25C375.34,435.86,376.59,438.7,374.9,440.79Z" style="fill:#ffb8b8"/><path d="M352.42,418a12.94,12.94,0,0,0-2.24.19c-6.38,1.09-8.26,6.87-8.8,10.73a20.36,20.36,0,0,0-.19,3.57l-5.64-4.33-2.05-1.58a37.39,37.39,0,0,1-13.16-8.39,66.39,66.39,0,0,1-8.86-10.51,91,91,0,0,1-6.86-11.77,8.65,8.65,0,0,1-.12-7.34l7-15.55,10.19-22.72c.08-.54.16-1.07.25-1.59,2-11.6,7.44-16.75,7.44-16.75h4.14l2.77,16.75,3.44,20.81-2.41,7.86-5.57,18.16,5.32,5.78Z" style="fill:#dcd6e7"/><path d="M437.78,437.41v1.68a3.89,3.89,0,0,1-.25,1.35,5.77,5.77,0,0,1-.27.56,3.74,3.74,0,0,1-3.21,1.82H310.17A3.73,3.73,0,0,1,307,441a5.77,5.77,0,0,1-.27-.56,3.67,3.67,0,0,1-.25-1.35v-1.68a3.73,3.73,0,0,1,3.72-3.73h7.15v-.79a.15.15,0,0,1,.15-.15h3.73a.15.15,0,0,1,.15.15h0v.79h2.33v-.79a.16.16,0,0,1,.16-.15h3.72a.16.16,0,0,1,.16.15h0v.79H330v-.79a.15.15,0,0,1,.15-.15h3.73a.15.15,0,0,1,.15.15h0v.79h2.33v-.79a.16.16,0,0,1,.16-.15h3.72a.16.16,0,0,1,.16.15h0v.79h2.33v-.79a.15.15,0,0,1,.15-.15h3.73a.15.15,0,0,1,.15.15h0v.79h2.33v-.79a.16.16,0,0,1,.16-.15H353a.16.16,0,0,1,.16.15h0v.79h2.33v-.79a.15.15,0,0,1,.15-.15h29.19a.15.15,0,0,1,.15.15h0v.79h2.33v-.79a.16.16,0,0,1,.16-.15h3.73a.15.15,0,0,1,.15.15v.79h2.33v-.79a.15.15,0,0,1,.15-.15h3.73a.16.16,0,0,1,.16.15h0v.79h2.32v-.79a.16.16,0,0,1,.16-.15h3.72a.16.16,0,0,1,.16.15h0v.79h2.33v-.79a.16.16,0,0,1,.16-.15h3.72a.15.15,0,0,1,.15.15v.79h2.33v-.79a.16.16,0,0,1,.16-.15h3.73a.15.15,0,0,1,.15.15h0v.79h2.33v-.79a.15.15,0,0,1,.15-.15H423a.16.16,0,0,1,.16.15h0v.79h10.86a3.73,3.73,0,0,1,3.73,3.72Z" style="fill:#1b1327"/><path d="M427.8,366.49H381.63v-1H360.69v1H314.32a3.12,3.12,0,0,0-3.12,3.12h0v63.23a3.12,3.12,0,0,0,3.12,3.12H427.8a3.13,3.13,0,0,0,3.13-3.12h0V369.61a3.12,3.12,0,0,0-3.13-3.12Z" style="fill:#35264e"/><path d="M141.3,156.34a.21.21,0,0,1,.13-.19l5.29-3c.12-.07.24-.16.4-.25l-.22,0L142,152.3c-.49-.05-1-.12-1.46-.18a.6.6,0,0,1-.46-.3c-.35-.52-.73-1-1.11-1.54a.28.28,0,0,1-.05-.29c.52-1.42,1-2.84,1.53-4.26a1.72,1.72,0,0,0,.07-.21,5.91,5.91,0,0,0-.66.36l-3.5,2.22a.22.22,0,0,1-.19,0c-.39-.17-.79-.35-1.17-.54a.25.25,0,0,1-.14-.19c-.16-.65-.3-1.3-.44-2-.25-1.11-.49-2.23-.74-3.34-.09-.41-.19-.81-.29-1.27-.07.14-.12.23-.16.33q-1.26,2.86-2.5,5.75a.58.58,0,0,1-.44.4c-.63.14-1.24.34-1.86.53a.28.28,0,0,1-.31-.07q-2.13-2-4.28-3.91l-.17-.15a1.07,1.07,0,0,0,0,.23l.93,4.24c.14.63.26,1.25.38,1.88a.41.41,0,0,1-.07.28c-.2.26-.41.51-.61.78a.28.28,0,0,1-.3.13l-5.69-.56h-.21c.24.22.44.41.65.59l3.84,3.4a.32.32,0,0,1,.12.32c0,.32-.07.65-.08,1a.29.29,0,0,1-.16.28q-2.44,1.51-4.87,3l-1.17.71.18,0,1.34.12,5.42.45c.09,0,.18,0,.24.12a10,10,0,0,0,.79,1.24.85.85,0,0,1,.1,1c-.71,1.67-1.39,3.34-2.08,5l-.32.76.27-.15,5.69-3.43a.28.28,0,0,1,.22,0c.33.11.66.25,1,.35a.44.44,0,0,1,.35.34c.21.75.44,1.5.65,2.26.29,1,.57,2,.85,3h0a2.29,2.29,0,0,0,.1-.23L133,166a.34.34,0,0,1,.28-.25,8.15,8.15,0,0,0,1.09-.24.63.63,0,0,1,.7.14c1.76,1.45,3.53,2.88,5.31,4.32l.19.13a.66.66,0,0,0,0-.25q-.84-2.67-1.67-5.34c-.13-.4-.24-.81-.35-1.21a.28.28,0,0,1,0-.2c.36-.43.74-.85,1.09-1.29a.46.46,0,0,1,.46-.2c1.34.13,2.69.24,4,.35l.22,0,0,0c-.1-.12-.2-.24-.3-.34l-2.91-2.91a.33.33,0,0,1-.08-.2Z" style="fill:#fff"/><path d="M328.3,182.34a.21.21,0,0,1,.13-.19l5.29-3c.12-.07.24-.16.4-.25l-.22,0L329,178.3c-.49-.05-1-.12-1.46-.18a.6.6,0,0,1-.46-.3c-.35-.52-.73-1-1.11-1.54a.28.28,0,0,1-.05-.29c.52-1.42,1-2.84,1.53-4.26a1.72,1.72,0,0,0,.07-.21,5.91,5.91,0,0,0-.66.36l-3.5,2.22a.22.22,0,0,1-.19,0c-.39-.17-.79-.35-1.17-.54a.25.25,0,0,1-.14-.19c-.16-.65-.3-1.3-.44-2-.25-1.11-.49-2.23-.74-3.34-.09-.41-.19-.81-.29-1.27-.07.14-.12.23-.16.33q-1.26,2.86-2.5,5.75a.58.58,0,0,1-.44.4c-.63.14-1.24.34-1.86.53a.28.28,0,0,1-.31-.07q-2.13-2-4.28-3.91l-.17-.15a1.07,1.07,0,0,0,0,.23l.93,4.24c.14.63.26,1.25.38,1.88a.41.41,0,0,1-.07.28c-.2.26-.41.51-.61.78a.28.28,0,0,1-.3.13l-5.69-.56h-.21c.24.22.44.41.65.59l3.84,3.4a.32.32,0,0,1,.12.32c0,.32-.07.65-.08,1a.29.29,0,0,1-.16.28q-2.44,1.51-4.87,3l-1.17.71.18,0,1.34.12,5.42.45c.09,0,.18,0,.24.12a10,10,0,0,0,.79,1.24.85.85,0,0,1,.1,1c-.71,1.67-1.39,3.34-2.08,5l-.32.76.27-.15,5.69-3.43a.28.28,0,0,1,.22,0c.33.11.66.25,1,.35a.44.44,0,0,1,.35.34c.21.75.44,1.5.65,2.26.29,1,.57,2,.85,3h0a2.29,2.29,0,0,0,.1-.23L320,192a.34.34,0,0,1,.28-.25,8.15,8.15,0,0,0,1.09-.24.63.63,0,0,1,.7.14c1.76,1.45,3.53,2.88,5.31,4.32l.19.13a.66.66,0,0,0,0-.25q-.84-2.67-1.67-5.34c-.13-.4-.24-.81-.35-1.21a.28.28,0,0,1,0-.2c.36-.43.74-.85,1.09-1.29a.46.46,0,0,1,.46-.2c1.34.13,2.69.24,4,.35l.22,0,0,0c-.1-.12-.2-.24-.3-.34l-2.91-2.91a.33.33,0,0,1-.08-.2Z" style="fill:#fff"/><path d="M344.87,134.19a5.59,5.59,0,0,1-5.58-5.57v-58a4.3,4.3,0,0,1,4.29-4.29h2.58a4.29,4.29,0,0,1,4.29,4.29V123h73.06a4.29,4.29,0,0,1,4.28,4.29v2.58a4.28,4.28,0,0,1-4.28,4.28ZM389,110.83a5.58,5.58,0,0,1-4-1.63L373.49,97.66l-9.59,9.51a4.31,4.31,0,0,1-6.06,0L356,105.33a4.29,4.29,0,0,1,0-6.06l13.56-13.44a5.59,5.59,0,0,1,7.87,0L389,97.37l9-9-5.08-5.08a6.91,6.91,0,0,1,4.89-11.8H417a5.61,5.61,0,0,1,5.61,5.6V96.33a7,7,0,0,1-6.94,6.93,6.79,6.79,0,0,1-4.86-2l-5-5-12.95,13A5.54,5.54,0,0,1,389,110.83Zm22.51-24.74V82.63H408Z" style="fill:#b9accf"/><path d="M346.16,69.32a1.29,1.29,0,0,1,1.29,1.29V126h76.06a1.29,1.29,0,0,1,1.29,1.29v2.58a1.28,1.28,0,0,1-1.29,1.28H344.87a2.57,2.57,0,0,1-2.57-2.57v-58a1.28,1.28,0,0,1,1.28-1.29h2.58M417,74.48a2.6,2.6,0,0,1,2.61,2.6V96.33a3.92,3.92,0,0,1-3.94,3.93A3.84,3.84,0,0,1,413,99.1L405.86,92l-15.07,15.07a2.57,2.57,0,0,1-1.82.75,2.61,2.61,0,0,1-1.83-.75L373.5,93.43,361.79,105a1.29,1.29,0,0,1-.92.38A1.25,1.25,0,0,1,360,105l-1.82-1.82a1.29,1.29,0,0,1,0-1.82h0L371.7,88a2.58,2.58,0,0,1,3.63,0L389,101.61l13.25-13.25L395,81.16a3.91,3.91,0,0,1,2.77-6.68H417m-2.55,18.85V79.63h-13.7l13.7,13.7m-68.32-30h-2.58a7.3,7.3,0,0,0-7.28,7.29v58a8.57,8.57,0,0,0,8.57,8.57h78.64a7.3,7.3,0,0,0,7.29-7.28v-2.58a7.3,7.3,0,0,0-7.29-7.29H353.45V107c.14.16.29.33.45.48l1.82,1.83a7.3,7.3,0,0,0,10.31,0l7.45-7.38,9.42,9.42a8.58,8.58,0,0,0,12.13,0l10.83-10.83,2.86,2.86a9.82,9.82,0,0,0,7,2.91,9.94,9.94,0,0,0,9.94-9.93V77.08a8.61,8.61,0,0,0-8.61-8.6H397.78a9.91,9.91,0,0,0-7,16.92l3,3L389,93.12l-9.4-9.39a8.58,8.58,0,0,0-12.1,0L353.92,97.13a5.68,5.68,0,0,0-.47.51v-27a7.3,7.3,0,0,0-7.29-7.29Z" style="fill:#fff"/><path d="M230.62,323.25a.2.2,0,0,1,.12-.19l5.3-3,.39-.25-.22,0-4.93-.52c-.49,0-1-.12-1.46-.18a.61.61,0,0,1-.46-.29c-.35-.53-.73-1-1.11-1.54a.28.28,0,0,1-.05-.3l1.53-4.26a1.72,1.72,0,0,0,.07-.21,5.91,5.91,0,0,0-.66.36L225.63,315a.2.2,0,0,1-.18,0l-1.18-.54a.38.38,0,0,1-.14-.19c-.15-.66-.29-1.31-.44-2-.24-1.11-.49-2.22-.73-3.34-.09-.41-.19-.81-.29-1.26a3.5,3.5,0,0,0-.17.32L220,313.82a.58.58,0,0,1-.44.4c-.63.14-1.24.34-1.86.53a.28.28,0,0,1-.31-.07l-4.28-3.91-.17-.15c0,.11,0,.17,0,.23.32,1.42.63,2.83.94,4.25.13.62.26,1.25.38,1.87a.37.37,0,0,1-.08.28c-.19.26-.4.52-.6.78a.28.28,0,0,1-.31.13l-5.68-.56h-.21l.65.59,3.84,3.39a.34.34,0,0,1,.12.32c0,.33-.07.65-.08,1a.3.3,0,0,1-.16.28l-4.88,3.05-1.16.72.18,0,1.33.12,5.43.45c.09,0,.18,0,.24.12a11.26,11.26,0,0,0,.78,1.24.85.85,0,0,1,.11,1c-.71,1.66-1.39,3.33-2.09,5-.1.24-.19.48-.31.76l.27-.15,5.69-3.43a.26.26,0,0,1,.21,0c.34.11.66.25,1,.34a.45.45,0,0,1,.35.34c.21.76.44,1.51.65,2.26l.84,3h0c0-.07.07-.15.1-.23l1.74-4.86a.34.34,0,0,1,.28-.25,7.69,7.69,0,0,0,1.08-.24.61.61,0,0,1,.7.15l5.31,4.31.2.14a.64.64,0,0,0,0-.25l-1.68-5.35c-.12-.4-.23-.8-.34-1.21a.24.24,0,0,1,0-.2c.36-.43.74-.85,1.09-1.29a.46.46,0,0,1,.46-.2c1.34.13,2.69.24,4,.36h.22l0,0c-.1-.11-.19-.23-.3-.34-1-1-1.93-1.93-2.9-2.9a.27.27,0,0,1-.08-.2C230.47,324.68,230.55,324,230.62,323.25Z" style="fill:#fff"/></svg>