<?xml version="1.0" encoding="utf-8"?>
<!-- Generator: Adobe Illustrator 23.0.2, SVG Export Plug-In . SVG Version: 6.00 Build 0)  -->
<svg version="1.1" id="Layer_1" xmlns="http://www.w3.org/2000/svg" xmlns:xlink="http://www.w3.org/1999/xlink" x="0px" y="0px"
	 viewBox="0 0 512 512" style="enable-background:new 0 0 512 512;" xml:space="preserve">
<style type="text/css">
	.st0{fill:#F5F5F5;}
	.st1{fill:#FF4B55;}
	.st2{fill:#FFFFFF;}
	.st3{fill:#FFE15A;}
	.st4{fill:#CC9B00;}
</style>
<path class="st0" d="M503.2,423.7H8.8c-4.9,0-8.8-4-8.8-8.8V97.1c0-4.9,4-8.8,8.8-8.8h494.3c4.9,0,8.8,4,8.8,8.8v317.8
	C512,419.8,508,423.7,503.2,423.7z"/>
<polygon class="st1" points="512,229.5 282.5,229.5 282.5,88.3 229.5,88.3 229.5,229.5 0,229.5 0,282.5 229.5,282.5 229.5,423.7 
	282.5,423.7 282.5,282.5 512,282.5 "/>
<path id="hand" class="st1" d="M269.6,282.4c-0.3,2.4-0.5,4.5-0.7,6.5c-0.2,1.9-0.3,3.8,0,5.8c0.1,0.8-0.1,1-0.8,1.3
	c-2.8,0.8-5.5,0.4-8.3,0.1c-3.6-0.4-7.2-0.3-10.7,0.7c-1,0.3-2.2,0.2-3.3-0.1c-0.7-0.2-0.9-0.7-0.9-1.4c0.1-3.6-0.3-7.2-0.1-10.8
	c0.1-0.8,0.3-0.9,1-0.8c1.4,0.1,2.8,0,4.3,0c0.5,0,0.9-0.1,1.3-0.2c0.4-0.1,1-0.2,0.9-0.8c-0.2-0.6-0.7-0.4-1.1-0.3
	c-1.8,0.4-3.6,0.2-5.3,0.2c-0.6,0-1.1-0.3-1.2-1c-0.2-1-0.7-1.9-1.3-2.7c-3.2-4-3.9-8.7-4.1-13.7c-0.1-3.8,0.4-7.6,1.1-11.3
	c1.2-6.8,1.7-13.7,1.7-20.6c0-1.3,0.1-2.6,0.3-3.8c0.1-0.5,0.3-1,0.5-1.4c0.5-0.8,1.3-1.1,2.1-1c0.9,0.1,0.8,1,0.8,1.5
	c0.2,2.1,0.2,4.1,0.3,6.2c0.2,3.7,0.5,7.3,1.2,10.9c0,0.2,0.1,0.4,0.2,0.7c0.1,0.4,0.2,0.7,0.7,0.7c0.5,0,0.5-0.5,0.5-0.8
	c0-1.9-0.1-3.8-0.1-5.8c-0.1-6,0-12,0.4-18c0.1-0.8,0.3-1.5,0.7-2.2c0.8-1.2,2.4-1.1,3,0.2c0.4,1,0.6,2,0.6,3.1
	c0.1,6.1,0.3,12.3,0.9,18.4c0.1,1.1,0.3,2.3,0.4,3.4c0.1,0.4,0.1,0.8,0.7,0.8c0.7,0,0.5-0.5,0.6-0.9c0.4-6.5,0.5-13.1,0.5-19.6
	c0-2.2-0.3-4.5,0-6.7c0.2-1.2,0.4-2.3,1.4-3.1c1.4-1.2,3-0.8,3.6,1c0.3,0.9,0.3,1.8,0.4,2.7c0.2,5.2,0.3,10.3,0.5,15.5
	c0.1,3,0.4,5.9,0.6,8.9c0,0.4,0,0.9,0.6,0.9c0.7,0,0.7-0.5,0.7-0.9c0.1-3.7,0.7-7.3,0.5-11c-0.2-3.1,0.1-6.2,0.2-9.3
	c0-0.3,0.1-0.6,0.2-0.9c0.3-1.1,0.9-2,2.1-2c1.2,0,2,0.9,2.3,2c0.4,1.6,0.6,3.3,0.6,4.9c0.1,5.1,0.2,10.3,0.3,15.4c0.1,4,0.5,8,1,12
	c0.1,0.8,0,1.3-0.7,1.8c-2.2,1.4-3.5,3.6-4.4,6c-0.1,0.3-0.4,0.7,0.1,0.9c0.6,0.3,0.7-0.1,0.9-0.5c0.8-1.8,1.7-3.6,3.2-4.9
	c0.5-0.4,0.9-1.2,1.5,0c0.4,0.8,0.8,0.1,1.1-0.4c1.4-2.4,2.8-4.8,4.2-7.2c0.9-1.5,2-2.6,3.8-3c1.6-0.3,2.2,0.2,1.8,1.8
	c-0.6,2.8-1.7,5.4-2.6,8.1c-1.4,4.2-2,8.6-3,12.9c-0.8,3.3-2.3,6.1-4.8,8.3c-1.7,1.5-3.1,3.3-5.4,4.1c-2.2,0.7-4.2,0.1-6.3,0
	c-0.4,0-0.9-0.4-1.1,0.2c-0.3,0.7,0.4,0.7,0.7,0.9c0.3,0.2,0.7,0.3,1,0.3C263.7,284,266.7,284.6,269.6,282.4z M267.2,253.1
	c-0.2,0.1-0.4,0.1-0.6,0.1c-4.8,0.6-9.3,2.4-13.8,3.8c-1.4,0.4-2.8,0.9-4.2,1.4c-0.3,0.1-0.6,0.2-0.4,0.7c0.2,0.3,0.3,0.6,0.7,0.4
	c0.2-0.1,0.5-0.2,0.8-0.3c5.2-1.6,10.2-3.6,15.6-4.6c1-0.2,2.1-0.3,3.1-0.5c0.4-0.1,0.6-0.4,0.6-0.8c0-0.2-0.2-0.4-0.4-0.2
	C268.2,253.5,267.7,253.1,267.2,253.1z"/>
<g id="Layer_2">
	<polygon id="star_1_" class="st2" points="258.6,165.9 281.2,217.1 336.9,211.1 303.8,256.3 336.9,301.5 281.2,295.4 258.6,346.7 
		236,295.4 180.3,301.5 213.4,256.3 180.3,211.1 236,217.1 	"/>
	<path class="st3" d="M225.4,165.8c0,0.7,0.4,1.3,0.9,1.6c-0.4,0.4-0.7,0.9-0.7,1.5c0,0.8,0.4,1.4,1.1,1.8c-0.2,0.3-0.3,0.7-0.3,1.1
		c0,0.5,0.2,0.9,0.5,1.3c-0.5,0.1-0.7,0.2-0.8,0.3c-0.2,0.1-0.3,0.2-0.4,0.4c-0.1,0.2,0,0.4,0.1,0.5c0.1,0.1,5.1,8.5,6.8,16.9
		c0,0.2,0.2,0.3,0.4,0.4c0.8,1.1,6,2.1,13.3,2.7l2.7-6.1l19.5,0l2.7,6.2c7.4-0.5,12.7-1.5,13.5-2.7c0.2-0.1,0.3-0.2,0.4-0.4
		c1.7-8.3,6.7-16.8,6.8-16.9c0.1-0.2,0.1-0.4,0.1-0.5c-0.1-0.2-0.2-0.3-0.4-0.4c0,0-0.4-0.1-1-0.3c0.3-0.3,0.4-0.7,0.4-1.2
		c0-0.4-0.1-0.7-0.3-1.1c0.6-0.4,1.1-1,1.1-1.8c0-0.6-0.3-1.2-0.7-1.5c0.5-0.4,0.9-1,0.9-1.6c0-0.8-0.4-1.4-1.1-1.8
		c0.3-0.4,0.5-0.8,0.5-1.4c0-0.9-0.6-1.7-1.4-1.9c0.2-0.3,0.3-0.7,0.3-1.1c0-1.1-0.9-2-2-2.1c0-0.2,0.1-0.3,0.1-0.5
		c0-1.1-0.9-2.1-2.1-2.1c-0.2,0-0.4,0.1-0.5,0.1c0,0,0-0.1,0-0.1c0-1.1-0.9-2.1-2.1-2.1c-0.4,0-0.7,0.1-1.1,0.3
		c-0.2-0.9-1-1.5-2-1.5c-0.6,0-1.1,0.2-1.5,0.6c-0.4-0.6-1-1.1-1.8-1.1c-0.7,0-1.3,0.4-1.7,0.9c-0.4-0.4-0.9-0.7-1.5-0.7
		c-0.8,0-1.4,0.4-1.8,1.1c-0.4-0.4-0.9-0.7-1.5-0.7c-0.8,0-1.4,0.4-1.8,1c-0.4-0.3-0.8-0.5-1.3-0.5c-0.9,0-1.6,0.5-1.9,1.3
		c-0.4-0.4-0.9-0.6-1.4-0.6c-0.8,0-1.5,0.5-1.8,1.1c-0.2-0.1-0.3-0.2-0.5-0.2c0.4-0.6,0.7-1.4,0.7-2.3c0-1.6-1-3-2.4-3.7l0.6-1.2
		c0.1-0.2,0.1-0.4,0-0.6l-0.7-1.4c0.1,0,0.1-0.1,0.1-0.1l1.4,0.7c0.1,0,0.2,0.1,0.3,0.1s0.2,0,0.3-0.1l3.4-1.7
		c0.2-0.1,0.4-0.3,0.4-0.6s-0.1-0.5-0.4-0.6l-3.4-1.7c-0.2-0.1-0.4-0.1-0.6,0l-1.4,0.7c0-0.1-0.1-0.1-0.1-0.1l0.7-1.4
		c0.1-0.2,0.1-0.4,0-0.6l-1.7-3.4c-0.2-0.4-0.9-0.4-1.1,0l-1.7,3.4c-0.1,0.2-0.1,0.4,0,0.6l0.7,1.4c-0.1,0-0.1,0.1-0.1,0.1l-1.4-0.7
		c-0.2-0.1-0.4-0.1-0.6,0l-3.4,1.7c-0.2,0.1-0.4,0.3-0.4,0.6c0,0.2,0.1,0.5,0.4,0.6l3.4,1.7c0.1,0,0.2,0.1,0.3,0.1
		c0.1,0,0.2,0,0.3-0.1l1.4-0.7c0,0.1,0.1,0.1,0.1,0.1l-0.7,1.4c-0.1,0.2-0.1,0.4,0,0.6l0.6,1.2c-1.4,0.6-2.4,2-2.4,3.7
		c0,0.8,0.2,1.6,0.7,2.2c-0.3,0-0.5,0.1-0.7,0.3c-0.4-0.7-1-1.1-1.8-1.1c-0.6,0-1.1,0.2-1.4,0.6c-0.3-0.8-1-1.3-1.9-1.3
		c-0.5,0-0.9,0.2-1.3,0.5c-0.4-0.6-1-1-1.8-1c-0.6,0-1.2,0.3-1.5,0.7c-0.4-0.6-1-1.1-1.8-1.1c-0.6,0-1.1,0.3-1.5,0.7
		c-0.4-0.6-1-0.9-1.7-0.9c-0.8,0-1.5,0.5-1.8,1.1c-0.4-0.4-0.9-0.6-1.5-0.6c-1,0-1.7,0.7-2,1.5c-0.3-0.2-0.7-0.3-1.1-0.3
		c-1.1,0-2.1,0.9-2.1,2.1c0,0,0,0.1,0,0.1c-0.2,0-0.4-0.1-0.5-0.1c-1.1,0-2.1,0.9-2.1,2.1c0,0.2,0.1,0.4,0.1,0.5c-1.1,0-2,0.9-2,2.1
		c0,0.4,0.1,0.7,0.3,1.1c-0.8,0.3-1.4,1-1.4,1.9c0,0.5,0.2,1,0.5,1.4C225.8,164.3,225.4,165,225.4,165.8z"/>
	<g>
		<path class="st4" d="M225.4,165.8c0,0.7,0.4,1.3,0.9,1.6c-0.4,0.4-0.7,0.9-0.7,1.5c0,0.8,0.4,1.4,1.1,1.8
			c-0.2,0.3-0.3,0.7-0.3,1.1c0,0.5,0.2,0.9,0.5,1.3c-0.5,0.1-0.7,0.2-0.8,0.3c-0.2,0.1-0.3,0.2-0.4,0.4c-0.1,0.2,0,0.4,0.1,0.5
			c0.1,0.1,5.1,8.5,6.8,16.9c0,0.2,0.2,0.3,0.4,0.4c0.8,1.1,6,2.1,13.3,2.7l2.7-6.1c-7.4,0.4-13.1,1.2-15.2,2.3
			c-1.5-7.1-5.2-13.9-6.4-16.1c2-0.6,7.8-1.9,10.4,3.4c0.1,0.3,0.4,0.4,0.7,0.3c0.3-0.1,0.5-0.3,0.5-0.6c0,0,0-4.7,3.1-6.3
			c3-1.5,7.8,3.5,9.4,6.5c0,0,0,0,0,0c0.1,0.1,0.1,0.2,0.2,0.2c0,0,0,0,0.1,0c0,0,0,0,0.1,0c0.1,0,0.1,0,0.2,0c0,0,0,0,0,0
			c0,0,0,0,0,0c0.1,0,0.1,0,0.2-0.1c0.1,0,0.1,0,0.2-0.1c0.1,0,0.1-0.1,0.1-0.2c0,0,0.1-0.1,0.1-0.1c0-0.1,0.1-0.3,0.2-0.7
			c0.4-1.1,1.4-3.4,3.2-4.7l0.8-1.9c-1.1,0.4-2,1.1-2.7,1.8c0.9-3.8,1.9-8.9,1.9-13.6c1,0.3,1.7,0.5,2.2,0.6v8.1l0.5-1.2l0.8,1.7
			V159h0v0c0.4-0.1,1.2-0.3,2.1-0.6c0,4.7,1,9.7,1.9,13.5c-0.8-0.8-1.7-1.5-2.9-1.8l0.8,1.8c1.6,1,2.6,2.8,3.2,4.1
			c0.3,0.9,0.4,1.5,0.5,1.6c0.1,0.3,0.3,0.4,0.6,0.4c0.1,0,0.1,0,0.2,0c0,0,0,0,0,0c0.2,0,0.3-0.1,0.4-0.3c1.5-3.1,6.4-8,9.4-6.5
			c0.2,0.1,0.4,0.2,0.6,0.3c0.2,0.1,0.3,0.3,0.5,0.4c2,1.9,2,5.5,2,5.5c0,0.3,0.2,0.6,0.5,0.6c0.3,0.1,0.6-0.1,0.7-0.3
			c2.6-5.2,8.4-4,10.4-3.3c-1.2,2.2-4.9,9-6.4,16.1c-2.1-1-7.9-1.9-15.5-2.3l2.7,6.2c7.4-0.5,12.7-1.5,13.5-2.7
			c0.2-0.1,0.3-0.2,0.4-0.4c1.7-8.3,6.7-16.8,6.8-16.9c0.1-0.2,0.1-0.4,0.1-0.5c-0.1-0.2-0.2-0.3-0.4-0.4c0,0-0.4-0.1-1-0.3
			c0.3-0.3,0.4-0.7,0.4-1.2c0-0.4-0.1-0.7-0.3-1.1c0.6-0.4,1.1-1,1.1-1.8c0-0.6-0.3-1.2-0.7-1.5c0.5-0.4,0.9-1,0.9-1.6
			c0-0.8-0.4-1.4-1.1-1.8c0.3-0.4,0.5-0.8,0.5-1.4c0-0.9-0.6-1.7-1.4-1.9c0.2-0.3,0.3-0.7,0.3-1.1c0-1.1-0.9-2-2-2.1
			c0-0.2,0.1-0.3,0.1-0.5c0-1.1-0.9-2.1-2.1-2.1c-0.2,0-0.4,0.1-0.5,0.1c0,0,0-0.1,0-0.1c0-1.1-0.9-2.1-2.1-2.1
			c-0.4,0-0.7,0.1-1.1,0.3c-0.2-0.9-1-1.5-2-1.5c-0.6,0-1.1,0.2-1.5,0.6c-0.4-0.6-1-1.1-1.8-1.1c-0.7,0-1.3,0.4-1.7,0.9
			c-0.4-0.4-0.9-0.7-1.5-0.7c-0.8,0-1.4,0.4-1.8,1.1c-0.4-0.4-0.9-0.7-1.5-0.7c-0.8,0-1.4,0.4-1.8,1c-0.4-0.3-0.8-0.5-1.3-0.5
			c-0.9,0-1.6,0.5-1.9,1.3c-0.4-0.4-0.9-0.6-1.4-0.6c-0.8,0-1.5,0.5-1.8,1.1c-0.2-0.1-0.3-0.2-0.5-0.2c0.4-0.6,0.7-1.4,0.7-2.3
			c0-1.6-1-3-2.4-3.7l0.6-1.2c0.1-0.2,0.1-0.4,0-0.6l-0.7-1.4c0.1,0,0.1-0.1,0.1-0.1l1.4,0.7c0.1,0,0.2,0.1,0.3,0.1s0.2,0,0.3-0.1
			l3.4-1.7c0.2-0.1,0.4-0.3,0.4-0.6s-0.1-0.5-0.4-0.6l-3.4-1.7c-0.2-0.1-0.4-0.1-0.6,0l-1.4,0.7c0-0.1-0.1-0.1-0.1-0.1l0.7-1.4
			c0.1-0.2,0.1-0.4,0-0.6l-1.7-3.4c-0.2-0.4-0.9-0.4-1.1,0l-1.7,3.4c-0.1,0.2-0.1,0.4,0,0.6l0.7,1.4c-0.1,0-0.1,0.1-0.1,0.1
			l-1.4-0.7c-0.2-0.1-0.4-0.1-0.6,0l-3.4,1.7c-0.2,0.1-0.4,0.3-0.4,0.6c0,0.2,0.1,0.5,0.4,0.6l3.4,1.7c0.1,0,0.2,0.1,0.3,0.1
			c0.1,0,0.2,0,0.3-0.1l1.4-0.7c0,0.1,0.1,0.1,0.1,0.1l-0.7,1.4c-0.1,0.2-0.1,0.4,0,0.6l0.6,1.2c-1.4,0.6-2.4,2-2.4,3.7
			c0,0.8,0.2,1.6,0.7,2.2c-0.3,0-0.5,0.1-0.7,0.3c-0.4-0.7-1-1.1-1.8-1.1c-0.6,0-1.1,0.2-1.4,0.6c-0.3-0.8-1-1.3-1.9-1.3
			c-0.5,0-0.9,0.2-1.3,0.5c-0.4-0.6-1-1-1.8-1c-0.6,0-1.2,0.3-1.5,0.7c-0.4-0.6-1-1.1-1.8-1.1c-0.6,0-1.1,0.3-1.5,0.7
			c-0.4-0.6-1-0.9-1.7-0.9c-0.8,0-1.5,0.5-1.8,1.1c-0.4-0.4-0.9-0.6-1.5-0.6c-1,0-1.7,0.7-2,1.5c-0.3-0.2-0.7-0.3-1.1-0.3
			c-1.1,0-2.1,0.9-2.1,2.1c0,0,0,0.1,0,0.1c-0.2,0-0.4-0.1-0.5-0.1c-1.1,0-2.1,0.9-2.1,2.1c0,0.2,0.1,0.4,0.1,0.5
			c-1.1,0-2,0.9-2,2.1c0,0.4,0.1,0.7,0.3,1.1c-0.8,0.3-1.4,1-1.4,1.9c0,0.5,0.2,1,0.5,1.4C225.8,164.3,225.4,165,225.4,165.8z
			 M265.1,173.7c-0.8-2.9-1.8-7.3-2.2-11.7c0.4-0.2,1.2-0.4,2.2-0.7V173.7z M266.4,174.8V161c0.7-0.2,1.5-0.4,2.4-0.6v11.8
			c0,0,0,0.1,0,0.1C267.9,173,267.1,173.9,266.4,174.8z M272.4,169.9c-0.8,0.3-1.6,0.7-2.4,1.3v-11.1c0.8-0.2,1.6-0.3,2.4-0.4V169.9
			z M276,169.9c-0.7-0.3-1.5-0.4-2.4-0.3v-10c0.8-0.1,1.6-0.1,2.4-0.1V169.9z M279.7,175.4c-0.3-1.4-0.9-3.3-2.3-4.6v-11.2
			c0.9,0.1,1.7,0.3,2.4,0.7v15C279.7,175.3,279.7,175.3,279.7,175.4C279.7,175.4,279.7,175.4,279.7,175.4z M281.8,173.5
			C281.8,173.5,281.8,173.5,281.8,173.5c-0.3,0.2-0.6,0.4-0.9,0.6v-13C285.5,165.4,281.9,173.4,281.8,173.5z M288.8,172.6
			c-0.4,0-0.8-0.4-0.8-0.8s0.4-0.8,0.8-0.8s0.8,0.4,0.8,0.8C289.6,172.2,289.2,172.6,288.8,172.6z M289.6,169.7
			c-0.4,0-0.8-0.4-0.8-0.8c0-0.4,0.4-0.8,0.8-0.8c0.4,0,0.8,0.4,0.8,0.8C290.4,169.4,290,169.7,289.6,169.7z M290.5,165.7
			c0,0.4-0.4,0.8-0.8,0.8s-0.8-0.4-0.8-0.8s0.4-0.8,0.8-0.8S290.5,165.3,290.5,165.7z M290,162.6c0,0.4-0.4,0.8-0.8,0.8
			c-0.4,0-0.8-0.4-0.8-0.8c0-0.4,0.4-0.8,0.8-0.8C289.6,161.8,290,162.2,290,162.6z M288.1,158.8c0.4,0,0.8,0.4,0.8,0.8
			s-0.4,0.8-0.8,0.8c-0.4,0-0.8-0.4-0.8-0.8C287.3,159.2,287.6,158.8,288.1,158.8z M286.2,156.2c0.4,0,0.8,0.4,0.8,0.8
			c0,0.4-0.4,0.8-0.8,0.8c-0.4,0-0.8-0.4-0.8-0.8C285.4,156.6,285.7,156.2,286.2,156.2z M283.6,154.1c0.4,0,0.8,0.4,0.8,0.8
			c0,0.4-0.4,0.8-0.8,0.8c-0.4,0-0.8-0.4-0.8-0.8C282.8,154.5,283.1,154.1,283.6,154.1z M280.5,152.9c0.4,0,0.8,0.4,0.8,0.8
			c0,0.4-0.4,0.8-0.8,0.8s-0.8-0.4-0.8-0.8C279.7,153.3,280.1,152.9,280.5,152.9z M277.3,152.4c0.4,0,0.8,0.4,0.8,0.8
			c0,0.4-0.4,0.8-0.8,0.8c-0.4,0-0.8-0.4-0.8-0.8C276.5,152.8,276.8,152.4,277.3,152.4z M274.1,152.7c0.4,0,0.8,0.4,0.8,0.8
			c0,0.4-0.4,0.8-0.8,0.8c-0.4,0-0.8-0.4-0.8-0.8C273.3,153.1,273.6,152.7,274.1,152.7z M270.8,153.1c0.4,0,0.8,0.4,0.8,0.8
			c0,0.4-0.4,0.8-0.8,0.8c-0.4,0-0.8-0.4-0.8-0.8C270,153.4,270.3,153.1,270.8,153.1z M267.7,153.6c0.4,0,0.8,0.4,0.8,0.8
			s-0.4,0.8-0.8,0.8s-0.8-0.4-0.8-0.8S267.3,153.6,267.7,153.6z M266.3,155.9C266.3,155.9,266.3,155.9,266.3,155.9
			C266.3,156,266.3,156,266.3,155.9C266.3,156,266.3,155.9,266.3,155.9z M264.4,154.3c0.4,0,0.8,0.4,0.8,0.8c0,0.4-0.4,0.8-0.8,0.8
			s-0.8-0.4-0.8-0.8C263.6,154.7,263.9,154.3,264.4,154.3z M277.5,155.7c4.5,0,7,2.4,8.2,4.4c2.2,3.5,2.4,8.4,0.5,12.2
			c-0.9,0-1.8,0.1-2.7,0.4c1-2.8,2.7-9.7-2.6-13.4c-4.5-3.1-15.1,0.2-18.1,1.2c-0.1-0.9-0.1-1.7-0.1-2.6
			C266.7,157.1,273,155.7,277.5,155.7z M261,142.7l1.1-0.6l2,1l-2,1l-1.1-0.6c0-0.1,0-0.3,0-0.4S261.1,142.9,261,142.7z
			 M256.4,143.6l-1.1,0.6l-2-1l2-1l1.1,0.6c0,0.1,0,0.3,0,0.4S256.4,143.4,256.4,143.6z M258.7,157.6c-0.4,0-0.8-0.4-0.8-0.8
			c0-0.4,0.4-0.8,0.8-0.8c0.4,0,0.8,0.4,0.8,0.8S259.2,157.6,258.7,157.6z M262.3,155.9c0,0.4-0.4,0.8-0.8,0.8s-0.8-0.4-0.8-0.8
			c0-0.4,0.4-0.8,0.8-0.8S262.3,155.5,262.3,155.9z M258.7,137.8l1,2l-0.6,1.1c-0.1,0-0.3,0-0.4,0c-0.1,0-0.3,0-0.4,0l-0.6-1.1
			L258.7,137.8z M258.7,142.1c0.6,0,1.1,0.5,1.1,1.1c0,0.6-0.5,1.1-1.1,1.1c-0.6,0-1.1-0.5-1.1-1.1
			C257.7,142.6,258.1,142.1,258.7,142.1z M259.7,146.6l-0.6,1.1c-0.1,0-0.3,0-0.4,0c-0.1,0-0.3,0-0.4,0l-0.6-1.1l0.6-1.1
			c0.1,0,0.3,0,0.4,0s0.3,0,0.4,0L259.7,146.6z M258.7,148.9c1.5,0,2.8,1.2,2.8,2.8c0,1.5-1.2,2.8-2.8,2.8s-2.8-1.2-2.8-2.8
			S257.2,148.9,258.7,148.9z M255.7,155.1c0.4,0,0.8,0.4,0.8,0.8c0,0.4-0.4,0.8-0.8,0.8s-0.8-0.4-0.8-0.8
			C254.9,155.5,255.3,155.1,255.7,155.1z M226.9,168.9c0-0.4,0.4-0.8,0.8-0.8c0.4,0,0.8,0.4,0.8,0.8c0,0.4-0.4,0.8-0.8,0.8
			C227.2,169.7,226.9,169.4,226.9,168.9z M228.4,172.6c-0.4,0-0.8-0.4-0.8-0.8c0-0.4,0.4-0.8,0.8-0.8s0.8,0.4,0.8,0.8
			C229.2,172.2,228.8,172.6,228.4,172.6z M236.2,174c-0.3-0.2-0.6-0.4-1-0.6c-0.5-1-3.3-8.3,1-12.2V174z M239.9,171
			c-1.3,1.3-1.9,3.1-2.1,4.4c-0.1-0.1-0.2-0.2-0.3-0.3v-14.9h0c0.7-0.4,1.5-0.6,2.4-0.7V171z M243.5,169.6c-0.1,0-0.3,0-0.4,0
			c-0.6,0-1.2,0.1-1.8,0.4c-0.1,0-0.1,0.1-0.2,0.1v-10.5h0v0c0.8,0,1.5,0,2.4,0.1V169.6z M247.2,171c-0.8-0.6-1.6-1-2.4-1.2v-10.1
			c0.8,0.1,1.6,0.2,2.4,0.4V171z M250.8,174.5c-0.7-0.9-1.5-1.7-2.4-2.5v-11.7c0.8,0.2,1.6,0.4,2.4,0.6V174.5z M252.1,174.3v-12.9
			c1.1,0.3,1.9,0.6,2.3,0.8C254,166.7,252.9,171.4,252.1,174.3z M252.8,154.3c0.4,0,0.8,0.4,0.8,0.8c0,0.4-0.4,0.8-0.8,0.8
			s-0.8-0.4-0.8-0.8C252,154.7,252.4,154.3,252.8,154.3z M250.9,155.9C250.9,155.9,250.9,155.9,250.9,155.9L250.9,155.9
			C250.9,155.9,250.9,155.9,250.9,155.9z M249.5,153.6c0.4,0,0.8,0.4,0.8,0.8s-0.4,0.8-0.8,0.8s-0.8-0.4-0.8-0.8
			S249,153.6,249.5,153.6z M246.4,153.1c0.4,0,0.8,0.4,0.8,0.8c0,0.4-0.4,0.8-0.8,0.8c-0.4,0-0.8-0.4-0.8-0.8
			C245.6,153.4,246,153.1,246.4,153.1z M243.1,152.7c0.4,0,0.8,0.4,0.8,0.8c0,0.4-0.4,0.8-0.8,0.8c-0.4,0-0.8-0.4-0.8-0.8
			C242.3,153.1,242.7,152.7,243.1,152.7z M239.9,152.4c0.4,0,0.8,0.4,0.8,0.8c0,0.4-0.4,0.8-0.8,0.8c-0.4,0-0.8-0.4-0.8-0.8
			C239.1,152.8,239.5,152.4,239.9,152.4z M236.7,152.9c0.4,0,0.8,0.4,0.8,0.8c0,0.4-0.4,0.8-0.8,0.8s-0.8-0.4-0.8-0.8
			C235.9,153.3,236.2,152.9,236.7,152.9z M233.6,154.1c0.4,0,0.8,0.4,0.8,0.8c0,0.4-0.4,0.8-0.8,0.8c-0.4,0-0.8-0.4-0.8-0.8
			C232.8,154.5,233.2,154.1,233.6,154.1z M231,156.2c0.4,0,0.8,0.4,0.8,0.8c0,0.4-0.4,0.8-0.8,0.8c-0.4,0-0.8-0.4-0.8-0.8
			C230.2,156.6,230.6,156.2,231,156.2z M231.7,160.2c1.3-2,3.7-4.4,8.2-4.4c4.4,0,10.7,1.4,14.7,2.4c0,0.9,0,1.8-0.1,2.7
			c-2.7-1-13.6-4.4-18.2-1.3c-5.2,3.6-3.6,10.4-2.6,13.3c-0.8-0.2-1.7-0.3-2.5-0.3C229.3,168.6,229.5,163.7,231.7,160.2z
			 M229.1,158.8c0.4,0,0.8,0.4,0.8,0.8c0,0.4-0.4,0.8-0.8,0.8c-0.4,0-0.8-0.4-0.8-0.8C228.3,159.2,228.7,158.8,229.1,158.8z
			 M228,161.8c0.4,0,0.8,0.4,0.8,0.8c0,0.4-0.4,0.8-0.8,0.8c-0.4,0-0.8-0.4-0.8-0.8C227.2,162.2,227.6,161.8,228,161.8z M227.5,165
			c0.4,0,0.8,0.4,0.8,0.8c0,0.4-0.4,0.8-0.8,0.8s-0.8-0.4-0.8-0.8C226.7,165.3,227.1,165,227.5,165z"/>
		<path class="st4" d="M261.2,176.2c-0.1,0.1-0.2,0.1-0.2,0.2c-0.6,0.6-1.6,0.1-1.6-0.7v-0.1c0-0.4-0.3-0.6-0.6-0.6
			c-0.4,0-0.6,0.3-0.6,0.6v0.1c0,0.9-1,1.3-1.6,0.7c-0.1-0.1-0.2-0.1-0.2-0.2c-0.3-0.2-0.7-0.2-0.9,0.1c-0.2,0.3-0.2,0.7,0.1,0.9
			c1.7,1.4,2.7,4.9,2.7,6.2v0.7c0,0.4,0.3,0.6,0.6,0.6c0.4,0,0.6-0.3,0.6-0.6v-0.7c0-1.4,1-4.8,2.7-6.2c0.3-0.2,0.3-0.6,0.1-0.9
			C261.9,176,261.5,176,261.2,176.2z"/>
		<path class="st4" d="M275.8,178.9c-0.1,0-0.2,0-0.2,0c-0.6,0-1.2-0.8-0.9-1.5c0,0,0-0.1,0-0.1c0.1-0.3,0-0.7-0.2-0.9
			c-0.2-0.3-0.5-0.3-0.6,0c0,0,0,0.1,0,0.1c-0.3,0.7-1.2,0.5-1.3-0.5c0-0.1,0-0.3-0.1-0.4c-0.1-0.4-0.3-0.7-0.6-0.6
			c-0.3,0.1-0.4,0.6-0.4,1c0.4,2.9-0.1,5.9-0.5,7c-0.1,0.2-0.2,0.4-0.3,0.6c-0.1,0.3,0,0.5,0.4,0.5c0.3,0,0.7-0.3,0.8-0.5
			c0.1-0.2,0.1-0.3,0.2-0.5c0.5-1,2.4-3.4,4-3.2c0.3,0,0.4-0.2,0.3-0.4C276.3,179.2,276,178.9,275.8,178.9z"/>
		<path class="st4" d="M285.3,180.9c-0.1,0-0.1,0-0.2,0c-0.5,0.1-0.9-0.7-0.6-1.4c0,0,0-0.1,0-0.1c0.1-0.3,0.1-0.7-0.1-0.9
			c-0.2-0.2-0.4-0.2-0.5,0.1c0,0,0,0.1,0,0.1c-0.3,0.7-1,0.6-1.1-0.4c0-0.1,0-0.3,0-0.4c0-0.4-0.2-0.7-0.4-0.5
			c-0.2,0.1-0.4,0.6-0.4,1c0.1,2.7-0.5,5.7-1,6.8c-0.1,0.2-0.2,0.4-0.3,0.6c-0.1,0.3,0,0.5,0.3,0.5c0.3-0.1,0.6-0.3,0.7-0.6
			c0.1-0.2,0.1-0.3,0.2-0.5c0.5-1,2.2-3.4,3.5-3.4c0.2,0,0.3-0.2,0.2-0.4C285.7,181.1,285.5,180.9,285.3,180.9z"/>
		<path class="st4" d="M246.4,183c-0.5-1.1-0.9-4.1-0.5-7c0.1-0.4-0.1-0.9-0.4-1c-0.3-0.1-0.5,0.2-0.6,0.6c0,0.1,0,0.3-0.1,0.4
			c-0.1,1-1,1.2-1.3,0.5c0,0,0-0.1,0-0.1c-0.1-0.3-0.4-0.3-0.6,0c-0.2,0.3-0.3,0.7-0.2,0.9c0,0,0,0.1,0,0.1c0.3,0.7-0.3,1.5-0.9,1.5
			c-0.1,0-0.2,0-0.2,0c-0.2,0-0.5,0.3-0.6,0.5c-0.1,0.2,0,0.4,0.3,0.4c1.6-0.1,3.5,2.2,4,3.2c0.1,0.2,0.1,0.3,0.2,0.5
			c0.1,0.3,0.5,0.5,0.8,0.5c0.3,0,0.5-0.2,0.4-0.5C246.6,183.4,246.5,183.2,246.4,183z"/>
		<path class="st4" d="M236.5,185.2c-0.5-1.1-1.1-4.1-1-6.8c0-0.4-0.2-0.9-0.4-1c-0.2-0.1-0.4,0.1-0.4,0.5c0,0.1,0,0.3,0,0.4
			c0,1-0.8,1.1-1.1,0.4c0,0,0-0.1,0-0.1c-0.1-0.3-0.4-0.3-0.5-0.1c-0.2,0.2-0.2,0.6-0.1,0.9c0,0,0,0.1,0,0.1
			c0.3,0.7-0.1,1.4-0.6,1.4c-0.1,0-0.1,0-0.2,0c-0.2,0-0.4,0.2-0.5,0.5c-0.1,0.2,0,0.4,0.2,0.4c1.3,0,3.1,2.4,3.5,3.4
			c0.1,0.2,0.1,0.3,0.2,0.5c0.1,0.3,0.4,0.5,0.7,0.6c0.3,0,0.4-0.2,0.3-0.5C236.6,185.6,236.5,185.4,236.5,185.2z"/>
	</g>
</g>
<path id="hand_1_" class="st1" d="M269.6,279.4c-0.3,2.4-0.5,4.5-0.7,6.5c-0.2,1.9-0.3,3.8,0,5.8c0.1,0.8-0.1,1-0.8,1.3
	c-2.8,0.8-5.5,0.4-8.3,0.1c-3.6-0.4-7.2-0.3-10.7,0.7c-1,0.3-2.2,0.2-3.3-0.1c-0.7-0.2-0.9-0.7-0.9-1.4c0.1-3.6-0.3-7.2-0.1-10.8
	c0.1-0.8,0.3-0.9,1-0.8c1.4,0.1,2.8,0,4.3,0c0.5,0,0.9-0.1,1.3-0.2c0.4-0.1,1-0.2,0.9-0.8c-0.2-0.6-0.7-0.4-1.1-0.3
	c-1.8,0.4-3.6,0.2-5.3,0.2c-0.6,0-1.1-0.3-1.2-1c-0.2-1-0.7-1.9-1.3-2.7c-3.2-4-3.9-8.7-4.1-13.7c-0.1-3.8,0.4-7.6,1.1-11.3
	c1.2-6.8,1.7-13.7,1.7-20.6c0-1.3,0.1-2.6,0.3-3.8c0.1-0.5,0.3-1,0.5-1.4c0.5-0.8,1.3-1.1,2.1-1c0.9,0.1,0.8,1,0.8,1.5
	c0.2,2.1,0.2,4.1,0.3,6.2c0.2,3.7,0.5,7.3,1.2,10.9c0,0.2,0.1,0.4,0.2,0.7c0.1,0.4,0.2,0.7,0.7,0.7c0.5,0,0.5-0.5,0.5-0.8
	c0-1.9-0.1-3.8-0.1-5.8c-0.1-6,0-12,0.4-18c0.1-0.8,0.3-1.5,0.7-2.2c0.8-1.2,2.4-1.1,3,0.2c0.4,1,0.6,2,0.6,3.1
	c0.1,6.1,0.3,12.3,0.9,18.4c0.1,1.1,0.3,2.3,0.4,3.4c0.1,0.4,0.1,0.8,0.7,0.8c0.7,0,0.5-0.5,0.6-0.9c0.4-6.5,0.5-13.1,0.5-19.6
	c0-2.2-0.3-4.5,0-6.7c0.2-1.2,0.4-2.3,1.4-3.1c1.4-1.2,3-0.8,3.6,1c0.3,0.9,0.3,1.8,0.4,2.7c0.2,5.2,0.3,10.3,0.5,15.5
	c0.1,3,0.4,5.9,0.6,8.9c0,0.4,0,0.9,0.6,0.9c0.7,0,0.7-0.5,0.7-0.9c0.1-3.7,0.7-7.3,0.5-11c-0.2-3.1,0.1-6.2,0.2-9.3
	c0-0.3,0.1-0.6,0.2-0.9c0.3-1.1,0.9-2,2.1-2c1.2,0,2,0.9,2.3,2c0.4,1.6,0.6,3.3,0.6,4.9c0.1,5.1,0.2,10.3,0.3,15.4c0.1,4,0.5,8,1,12
	c0.1,0.8,0,1.3-0.7,1.8c-2.2,1.4-3.5,3.6-4.4,6c-0.1,0.3-0.4,0.7,0.1,0.9c0.6,0.3,0.7-0.1,0.9-0.5c0.8-1.8,1.7-3.6,3.2-4.9
	c0.5-0.4,0.9-1.2,1.5,0c0.4,0.8,0.8,0.1,1.1-0.4c1.4-2.4,2.8-4.8,4.2-7.2c0.9-1.5,2-2.6,3.8-3c1.6-0.3,2.2,0.2,1.8,1.8
	c-0.6,2.8-1.7,5.4-2.6,8.1c-1.4,4.2-2,8.6-3,12.9c-0.8,3.3-2.3,6.1-4.8,8.3c-1.7,1.5-3.1,3.3-5.4,4.1c-2.2,0.7-4.2,0.1-6.3,0
	c-0.4,0-0.9-0.4-1.1,0.2c-0.3,0.7,0.4,0.7,0.7,0.9c0.3,0.2,0.7,0.3,1,0.3C263.7,281,266.7,281.6,269.6,279.4z M267.2,250.1
	c-0.2,0.1-0.4,0.1-0.6,0.1c-4.8,0.6-9.3,2.4-13.8,3.8c-1.4,0.4-2.8,0.9-4.2,1.4c-0.3,0.1-0.6,0.2-0.4,0.7c0.2,0.3,0.3,0.6,0.7,0.4
	c0.2-0.1,0.5-0.2,0.8-0.3c5.2-1.6,10.2-3.6,15.6-4.6c1-0.2,2.1-0.3,3.1-0.5c0.4-0.1,0.6-0.4,0.6-0.8c0-0.2-0.2-0.4-0.4-0.2
	C268.2,250.5,267.7,250.1,267.2,250.1z"/>
</svg>
