<?xml version="1.0" encoding="utf-8"?>
<!-- Generator: Adobe Illustrator 23.0.2, SVG Export Plug-In . SVG Version: 6.00 Build 0)  -->
<svg version="1.1" id="Layer_1" xmlns="http://www.w3.org/2000/svg" xmlns:xlink="http://www.w3.org/1999/xlink" x="0px" y="0px"
	 viewBox="0 0 512 512" style="enable-background:new 0 0 512 512;" xml:space="preserve">
<style type="text/css">
	.st0{fill:#FFE15A;}
	.st1{fill:#73AF00;}
	.st2{fill:#FF4B55;}
</style>
<path class="st0" d="M8.8,88.3h494.3c4.9,0,8.8,4,8.8,8.8v317.8c0,4.9-4,8.8-8.8,8.8H8.8c-4.9,0-8.8-4-8.8-8.8V97.1
	C0,92.2,4,88.3,8.8,88.3z"/>
<path class="st1" d="M508.7,421.6L3.3,90.4c1.5-1.3,3.4-2.1,5.6-2.1h494.3c4.9,0,8.8,4,8.8,8.8v317.8
	C512,417.6,510.7,420,508.7,421.6z"/>
<polygon class="st2" points="260.6,277.4 229,300.3 240.9,263.1 209.4,240.1 248.5,240 260.6,202.9 272.8,240 311.8,240.1 
	280.3,263.1 292.3,300.3 "/>
</svg>
