<?xml version="1.0" encoding="utf-8"?>
<!-- Generator: Adobe Illustrator 23.0.2, SVG Export Plug-In . SVG Version: 6.00 Build 0)  -->
<svg version="1.1" id="Layer_1" xmlns="http://www.w3.org/2000/svg" xmlns:xlink="http://www.w3.org/1999/xlink" x="0px" y="0px"
	 viewBox="0 0 512 512" style="enable-background:new 0 0 512 512;" xml:space="preserve">
<style type="text/css">
	.st0{fill:#464655;}
	.st1{fill:#41479B;}
	.st2{fill:#73AF00;}
	.st3{fill:#FFE15A;}
</style>
<path class="st0" d="M503.2,423.7H8.8c-4.9,0-8.8-4-8.8-8.8V97.1c0-4.9,4-8.8,8.8-8.8h494.3c4.9,0,8.8,4,8.8,8.8v317.8
	C512,419.8,508,423.7,503.2,423.7z"/>
<path class="st1" d="M503.2,88.3H8.8c-4.9,0-8.8,4-8.8,8.8v105.1h512V97.1C512,92.2,508,88.3,503.2,88.3z"/>
<g id="Layer_5">
	<path class="st2" d="M177.5,290.8c1.1,0.7,2.2,1.5,3.3,2.2c-4.9,1-9.9,2-14.8,2.9c-1.4,0.3-2.4,0.8-1.7,2.7
		c4.4-2.5,9.2-2.4,13.8-1.1c4.3,1.2,8.5,1.2,12.7,0.2c0.8-0.2,1.7-0.2,2.5-0.2c-2.4,2-4.8,4-7.8,5c-2.6-1-4.4,1-6.5,1.7
		c-1.5,0.1-3,0.3-4.4-0.4c1.2-1.4,3-1.9,4.6-3.1c-4.3-1.3-8.3-1.8-12.4-0.4c-2.9,1-3.2,1.7-2.7,4.7c0.1,0.9,0.2,1.8-0.1,2.8
		c-0.4-1-0.8-2.1-1.1-3.1c-0.4-1.3-0.9-1.4-1.9-0.5c-0.8,0.8-1.4,1.7-2.5,2.1c-0.1-0.1-0.2-0.1-0.3-0.2c0.8-1.3,1.4-2.6,2.3-3.7
		c0.9-1.1,1-2.2,1-3.5c-0.1-1.4-0.5-1.7-1.9-1.3c-6.9,2.2-9.9,2.9-10.4,11.8c0,0.2-0.2,0.4-0.3,0.6c-3.3-4.4-2.3-9,2.4-11.4
		c2.6-1.4,5.4-2.3,8.3-3.1c1.4-0.4,2.3-0.9,2.9-2.3c0.6-1.7,1.8-3.1,3-4.4c0.9-1,0.8-1.5-0.6-1.8c-1-0.2-1.9-0.5-2.9,0.1
		c-3.7,2-7.8,3-11.9,4c-3.2,0.8-6.4,1.7-9.2,3.8c-0.5,0.3-1.1,0.9-1.6,0.2c-0.4-0.6,0.1-1.2,0.5-1.6c0.8-0.8,1.7-1.3,2.7-1.8
		c5.1-2.5,10.4-4.5,16-5.5c0.4-0.1,0.7-0.2,1.5-0.4c-1.8-1.3-3.6-1.2-5.3-1.3c-3.2-0.2-6.5-0.2-9.8-0.1c-4.3,0.2-7.6,1.9-8.9,6.4
		c-0.2,0.6-0.3,1.4-1.3,1.7c-0.6-1-0.2-1.9,0.1-2.8c0.3-1.1,0.7-2.2,1.1-3.3c0.6-2.1,0.2-2.6-1.9-2.2c-4,0.8-8,1.7-11.5,4.6
		c-0.1-2.3,1.2-3.2,2.6-4c4.1-2.2,8.5-2.7,13-3c3.4-0.2,6.8-0.3,10.3-0.7c-5.2-2.8-10-6.6-16.5-6.2c-2.1,0.1-4.2,0.1-6.3,0.2
		c-3.5,0.3-5.5,2.1-6.2,5.5c0,0.2-0.1,0.4-0.2,0.7c-0.1,0.1-0.2,0.2-0.3,0.4c-1-3.8,0.1-5.8,3.7-7c3.2-1,6.6-1.2,10-2.1
		c-3.5-2.1-6.1-5.6-10.9-5.6c1.2-0.8,2.1-1.5,0.8-2.6c0.1-0.1,0.2-0.2,0.2-0.3c3.1,2.3,5.9,0,8.9-0.4c-4.7-3.2-9.6-1.3-14.4-1.3
		c-5.7-0.1-7.5,5.4-11,8.5c-0.5-6.7,3.9-10.5,13-11.1c-6.9-2.2-13.5-3.5-20.3-5c2.4-0.6,3.7-0.6,7.8,0.2c4.8,1,9.5,2.1,14.3,3.2
		c0.8,0.2,1.7,0.3,2.5,0.4c0.2,0.2,0.4,0.4,0.7,0.1c-0.2-0.1-0.4-0.2-0.5-0.3c-5.2-4.3-11.4-7-17.3-10.4c3.3-0.1,6.1,1.6,9.2,2.2
		c0.2,0.1,0.4,0.1,0.6,0.2c-0.1-0.1-0.2-0.3-0.4-0.4c-3-4.1-7.3-6.6-11.2-9.7c-0.8-0.6-1.8-1.1-2.3-2.2c0.5-0.7,1-0.2,1.4,0
		c9.6,4.9,18.2,11.2,25.7,18.9c3.2,3.3,10.9,7.1,15.6,7.1c-11.9-7.7-23.9-14.7-29.8-28.5c2.8,1.5,4.8,3.5,6.8,5.3
		c7.9,7,15.8,14,23,21.7c2.2,2.3,4.5,3.7,7.5,4.5c5.9,1.5,11,4.4,15.7,8.2c2.1,1.7,4.5,3,6.8,4.5c1,0.7,2,0.8,3-0.4
		c-1.8-1.1-3.5-2.1-5.2-3.1c-2.8-1.7-5.4-3.7-7.4-6.3c-0.4-0.6-0.9-1.1-1.7-1.1c-7.1-0.7-12.5-4.8-17.4-9.5
		c-8.5-8.2-16.8-16.5-23.1-26.7c-0.7-1.1-1.2-2.2-1.7-3.3c-0.1-0.2-0.1-0.4-0.1-0.8c0.8,0.1,1,0.7,1.3,1.1
		c4.4,5.8,8.7,11.7,13.5,17.2c1.4,1.6,2.6,3.3,4.6,4.2c0.1,0,0.1,0,0.2,0c0,0-0.1-0.1-0.1-0.1c-0.2-2-1.6-3.3-2.7-4.7
		c-2.6-3.6-4.7-7.5-6.1-11.7c-0.2-0.7-0.7-1.4-0.3-2.4c1.3,0.7,1.9,1.9,2.7,3c6.6,9.5,13.2,18.9,21.2,27.3c0.8,0.8,1.5,1.8,2.6,2.2
		c0.2,0.1,0.4,0.4,0.4,0.4c0.3-0.3,0.1-0.5-0.1-0.7c-2.2-4.1-5.7-7.1-8.4-10.8c-3.2-4.2-6.1-8.6-7.3-13.9c-0.2-0.8-0.6-1.6-0.3-2.6
		c1.1,0.3,1.3,1.3,1.8,2c5.6,9.8,12.5,18.7,20,27.1c0.3,0.3,0.6,0.7,1,1c0.6,0.6,1.4,0.5,1.9,0c0.7-0.7-0.3-1-0.6-1.4
		c-2.4-2.9-4.7-6-6.7-9.2c-0.7-1.1-1.5-2.1-1.6-3.6c1.1-0.2,1.5,0.7,1.9,1.2c2.4,3.2,4.9,6.4,7.2,9.7c2.3,3.3,2.2,3.3,6.6,2.5
		c-5.5-5.1-8.9-11.5-12.4-18.2c0.6,0.2,0.9,0.2,1,0.3c4.7,5.6,10,10.7,13.3,17.3c0.7,1.4,2,0.6,2.7,1.3c0.1,0.3,0.1,0.6,0.5,0.5
		l-0.1-0.1c1,4.3,3.7,7.4,6.6,10.4c-0.8,0.6-1.9,0.4-2.6,1.3c0.7,0.9,1.7,1,2.6,1.4c3.3,1.7,7,2.4,10,4.5c-0.6,0.6-1.4,0.9-2.2,1
		c-4.5-1.9-8.9-3.8-13.5-5.8c-0.1,0.8,0.2,0.9,0.5,1.1c2.8,2.6,6.2,4.3,9.5,6c-5.1,1.8-10,1.4-14.7-1.4c-0.9-0.5-1.7-1-2.6-1.5
		c-0.2-0.4-0.5-0.4-0.9-0.2c0.2,0.2,0.3,0.4,0.5,0.6c0.5,0.7,0.9,1.4,1.4,2c-3.5,0.2-5.6,2.5-7.6,5.1c-0.3,0.3-0.7,0.8-0.2,1.2
		c0.2,0.2,0.7,0.1,1.1,0C170.6,292.6,174,291.7,177.5,290.8z M151.7,273.2c0.1,0.1,0.2,0.1,0.2,0.2
		C151.9,273.3,151.9,273.2,151.7,273.2c-0.9-1.1-2-2.2-2.9-3.3c-2.4-2.7-3.2-2.9-7-1.3C144.7,271.3,148.1,272.6,151.7,273.2z
		 M170.8,271.9c2.5,2.6,5.4,4.2,8.5,5.7c1,0.5,1.8,0,2.6-0.6c0.8-0.6,0.6-1-0.2-1.2C178,274.5,174.4,273.2,170.8,271.9z
		 M139.9,271.5c-2.3-2.7-3.1-2.9-6.6-1.4C135.3,271.8,137.2,272.9,139.9,271.5z M156.4,278.1c2.5,1.3,4.5,3.9,7.9,3.1
		C161.8,279.7,159.6,277.6,156.4,278.1z M129.5,267.4c1.6,2.6,3.1,1,4.5,0.3c0.5-0.2,1.4-0.1,1.1-1.1c-0.3-0.8-1-0.8-1.7-0.6
		C132.1,266.5,130.9,266.9,129.5,267.4z M156.2,272.1c1.7,1.3,3.1,3.1,5.5,3C160.3,273.4,158.4,272.5,156.2,272.1z M144,276.2
		c1.3,0.9,2.6,1.8,4.5,1.8C147.3,276,145.7,275.9,144,276.2z M177.5,271.1c-1.3-2.1-3.1-1.6-5.5-1.6
		C174.1,270.4,175.7,270.9,177.5,271.1z M141.7,266.5c0-0.1,0-0.2,0.1-0.3c-0.9-0.3-1.8-0.6-2.8-0.9c-0.4-0.1-0.8,0-0.9,0.4
		c-0.1,0.5,0.3,0.7,0.7,0.7C139.7,266.5,140.7,266.5,141.7,266.5z M169.9,280.9c1.1,0.5,1.9,2.2,3.9,0.8
		C172.3,281.1,171.2,280.7,169.9,280.9z M179.2,284c-0.8-0.7-1.4-1.5-2.8-0.5C177.4,284,178,284.5,179.2,284z"/>
	<path class="st2" d="M320.5,336.9c-2.3-0.8-4.6-1.7-6.8-2.9c0.9-0.8,1.8-1.2,2.7-1.4c23.7,8.3,47.6,16.2,71.7,23.1
		c1.6,0.5,3.1,0.9,4.7,1.4c0.7,0.2,1.8,0.3,1.3,1.4c-0.4,0.9-0.6,2.3-2.1,2c-1.6-0.4-3.2-0.8-4.7-1.3c-20.9-7-41.7-14.1-62.6-21.1
		c-1-0.3-2-1-3.1-0.7c0,0,0.1,0,0.1,0C321.5,337,321,337,320.5,336.9z"/>
	<path class="st2" d="M318.2,331.9c1-0.7,2.2-1,3.4-1.3c11.5,3.6,23.1,7,34.8,10c13.4,3.4,26.8,6.7,40.1,10c0.8,0.2,2.5-0.4,2.2,1.5
		c-0.3,1.9-1.5,2.3-3.2,1.9c-4.6-1.3-9.3-2.4-13.9-3.7c-19.7-5.6-39.4-11.1-59-16.7C321,333.2,319.5,332.7,318.2,331.9z"/>
	<path class="st2" d="M310,344.9c1.2-0.6,2.5-0.6,3.8-0.8c12,6.5,24.2,12.7,36.5,18.5c10.3,4.8,20.6,9.5,30.8,14.3
		c0.6,0.3,1.8,0.4,1.1,1.5c-0.5,0.9-0.9,2.4-2.5,1.8c-1.6-0.6-3.1-1.3-4.7-2.1c-20.9-10.5-41.7-21-62.6-31.5
		C311.6,346,310.8,345.4,310,344.9z"/>
	<path class="st2" d="M198.9,274c-2.9,0.8-5.9,0.9-8.8,0.1c-2.6-1.6-4.5-4.4-7.9-4.6c-1.4-0.1-1.7-1.5-2.8-2c0,0,0.1,0.1,0.1,0.1
		c0-0.2-0.1-0.3-0.1-0.5c1.4-0.1,1-0.5,0.4-1.3c-3.4-4.7-6.3-9.7-8.6-15c-0.2-0.5-0.6-1-0.2-1.7c1.2,0.5,1.9,1.5,2.6,2.5
		c3.6,5.7,8.6,10.2,12.8,15.4c0.5,0.7,1.4,0.7,2.1,0.9c0.6,0.2,1.5,0.3,1.9-0.4c0.4-0.7-0.4-1.1-0.7-1.6c-3.9-5.3-6.8-11.1-9-17.2
		c-0.4-1.1-0.7-2.2-0.7-3.4c0-0.6,0-1.4,0.8-1.5c1-0.1,1.4,0.7,1.4,1.5c0.2,2.3,1.2,4.3,2.1,6.4c2.4,5.1,4.9,10,8.3,14.5
		c1.5,2,3.3,2.5,5.6,2.3c0,0,0,0,0,0c0.2,0.2,0.4,0.3,0.5,0.5c0,0,0-0.1,0-0.1c-0.2,1.2,0.2,1.9,1.4,2.4c0.9,0.4,1.7,1,2.5,1.5
		c-0.2,0.9-1,0.8-1.6,0.8c-2.9-0.8-5.2-3.2-8.4-3.1C194.1,272.3,196.9,272.3,198.9,274z"/>
	<path class="st2" d="M329,344.4c-1.2-1.4-2.4-2.7-3.6-4.1c1.1-0.2,1.9,0.4,2.9,0.8c19.6,8.3,39.8,15.3,59.8,22.4
		c2.7,1,2.8,1.3,1.5,3.2c-0.9,1.3-1.8,0.5-2.6,0.2c-8.5-3-16.9-6.5-25.3-9.9c-10.1-4.1-20.3-8.1-30.4-12.2
		C330.5,344.6,329.8,344.3,329,344.4z"/>
	<path class="st2" d="M338.6,333.6c0.1-1.3-1.2-1.8-1.5-2.8c5.3,1.3,10.5,2.5,15.8,3.8c15.2,3.6,30.4,6.6,45.7,9.8
		c0.6,0.1,1.2,0.2,1.8,0.4c0.8,0.2,2.1,0,1.6,1.6c-0.4,1.1-0.5,2.3-2.4,1.9c-9.9-2.1-19.6-4.6-29.4-7c-10.3-2.5-20.5-5.4-31-7.3
		C338.9,333.9,338.8,333.7,338.6,333.6z"/>
	<path class="st2" d="M331.6,350.4c0.2-1-0.4-1.9-0.6-2.8c5.3,2.2,10.7,4.5,16.1,6.7c12.4,5,24.9,10,37.3,15.1c1,0.4,3,0.1,2.3,2.3
		c-0.7,2.2-2.1,1.7-3.7,1c-13.4-5.4-26.5-11.7-39.8-17.4C339.3,353.6,335.4,352,331.6,350.4z"/>
	<path class="st2" d="M172.3,305.6c0.8,0.5,1.5,1,2.3,1.4c-3.6,3.4-3.8,8.1-5.3,12.4C169,314.6,168.3,309.6,172.3,305.6z"/>
	<path class="st2" d="M180.6,309.5c1.1,0.2,2.1,0.4,3.2,0.5c-2.7,2.4-4.6,5.4-7,8.1C176.6,314.5,178.6,312,180.6,309.5z"/>
	<path class="st2" d="M317.5,343.9c4.8,0,9.1,1.2,12.1,5.3C325.5,347.7,321.4,345.9,317.5,343.9z"/>
	<path class="st2" d="M158.5,306.4c-0.1,0.1-0.3,0.3-0.4,0.4c-0.3-0.3-0.1-0.5,0.1-0.7C158.3,306.2,158.4,306.3,158.5,306.4z"/>
	<path class="st2" d="M122,263.4c0.4-0.1,0.7,0.1,1,0.4c-0.1,0.1-0.2,0.2-0.2,0.3C122.5,263.8,122.3,263.6,122,263.4L122,263.4z"/>
	<path class="st2" d="M325.4,340.3c-0.5,0.1-0.7-0.2-0.9-0.6C325,339.7,325.3,339.8,325.4,340.3z"/>
	<path class="st2" d="M316.9,343.8c0.3-0.2,0.5-0.1,0.7,0.1C317.3,343.9,317.1,343.9,316.9,343.8z"/>
	<path class="st2" d="M122,263.3c-0.1,0-0.1-0.1-0.2-0.1C121.9,263.3,121.9,263.3,122,263.3C122,263.4,122,263.3,122,263.3z"/>
</g>
<path class="st3" d="M258.1,396.2c-0.2-0.7,0-1.4,0.2-2c1.9-6.4,0.4-12.1-3.7-17.2c-1.4-1.7-3-3.4-4.9-5.5c0.3,9.7-2.3,17.7-10,23.4
	c2.3-4,3.5-8.3,2.9-12.9c-0.6-4.7-3.1-8.5-5.8-12.9c-1.8,9.3-5.8,16.7-14.3,20.7l0,0.1c-0.5-1,0.5-1.3,0.9-1.8
	c4.5-5.3,5.2-11.3,3.4-17.8c-0.6-2-1.2-4-2.1-6.6c-1.9,4.6-4,8.3-7.1,11.3c-3.2,3-6.8,5.4-11.4,5.9c9-6,9.6-14.6,7.8-24.6
	c-5.4,8-12.4,12.8-22.2,13c10.5-3.9,13.1-12.4,13.3-22.7c-6.8,6.6-14.6,9.9-24.2,8.1c10.9-1.7,15.1-9.4,17.5-19.4
	c-7.9,4.8-15.9,6.6-24.6,2.9c10.8,0.2,16.2-6.5,20.5-15.5c-8.8,3.1-17,3.2-25-2.2c10.4,2.4,17.4-2.7,23.4-10.8
	c-3.2,0.1-6.1,0.5-9.1,0.2c-1.1-0.2-2.1-0.4-3.2-0.5c-2-0.8-4-1.6-6.1-2.4c-0.8-0.5-1.5-1-2.3-1.4c-0.9-0.8-1.8-1.6-2.7-2.5
	c1.8-0.9,3.3,0.9,4.9,0.7c1.4,0.7,2.9,0.5,4.4,0.4c2.3-0.1,4.5-0.6,6.5-1.7c3.1-1,5.4-3.1,7.8-5.1c0.3-0.9,0.3-1-0.5-1
	c-4.3-0.2-8.2-1.6-12-3.5c-1.1-0.7-2.2-1.5-3.3-2.2c-1.2-1.3-2.4-2.5-3.6-3.8c-0.5-0.7-0.9-1.4-1.4-2c0.1-0.1,0.2-0.3,0.3-0.4
	c0.9,0.5,1.7,1,2.6,1.5c4.7,2.8,9.6,3.2,14.8,1.4c1.3-0.1,2.5-0.6,3.5-1.3c0.8-0.1,1.6-0.4,2.2-1c0.7-0.1,1.5-0.3,2.1-1.2
	c-4.5-1.2-8.5-3.3-12.1-6.1c-2.9-3-5.7-6.2-6.7-10.5c1.1,0.4,1.5,1.9,2.9,2c1.8,3.1,4.8,4,8,4.6c3,0.8,5.9,0.7,8.9-0.1
	c0.6,0.1,1.3,0,1.8-0.4c0.7,0,1.4,0.1,1.6-0.8c0.7,0.7,1.3,0.4,2.1-0.1c-2.1-1.3-4-2.6-6-3.8l0,0.1c-0.2-0.2-0.4-0.3-0.5-0.5l0,0
	c-4.1-4-7.3-8.5-8.3-14.3c-0.1-0.5-0.4-1,0.2-1.8c4.9,9.7,13.4,11.3,23.5,10.5c-7.2-6.2-11.4-13.5-10.5-23c1.6,4.3,3.6,8.3,7.7,11
	c4,2.6,8.4,3.5,13.5,4.3c-6-7.7-8.4-15.8-5.6-25.2c0.5,11.1,7.7,16.3,17.5,19.7c-4.2-8.7-4.9-17.1-0.2-25.6
	c-1.7,10.8,4.1,17.4,12.9,22.6c-0.8-4.4-1.5-8.6-0.7-12.8c0.8-4.3,2.4-8.1,5.7-12c-0.5,3.5-1.5,6.3-1.1,9.3c0.4,3.1,1.5,5.9,3.2,8.4
	c1.7,2.5,3.8,4.7,6.2,7.1c0.1-3.6,0.1-6.8,1-9.9c1.4-5.1,4-9.4,8.1-12.8c0.3-0.3,0.6-0.8,1.1-0.2l-0.1,0c-5.7,9.1-3,17.3,2.8,25.6
	c1.6-9.1,5.7-16.3,14.3-20.4c-7.3,7.9-6.2,16.5-2.3,25.7c3.5-8.6,8.9-14.7,17.9-17.2c0.1,0.1,0.2,0.2,0.3,0.3
	c-0.5,0.5-0.9,1-1.5,1.4c-4.6,3.4-6.6,8.2-6.8,13.7c-0.2,3,0.3,6,0.9,9.4c3.7-5.6,8.1-9.6,14-11.8c2.2-0.8,4.4-1.4,7-0.9
	c-4.2,2-7.5,4.8-9.5,9c-1.9,4.1-2.2,8.5-2.6,13.4c4.7-4.6,9.8-7.7,15.9-8.6c2.5-0.4,5-0.3,7.7,0.4c-10.5,2.1-14.5,9.7-16.7,19.4
	c8.1-5.1,16.3-6.6,25.2-2.9c-11.1-0.6-16.8,6.2-21,15.3c8.8-2.9,17.2-3.4,25,2.3l0,0c-2.8,0.3-5.5-0.8-8.3-0.3
	c-6.7,1.3-11,5.8-15.3,11.1c9.4-1.2,17.6,0.5,24.1,7.5c-9.8-4.7-17.6-1.1-25.3,5.6c8.1,0.5,14.8,3.3,20,9.1c0.3,1,1.6,1.6,1.5,2.8
	c-1,0-1.7-0.7-2.5-1.2c-4.6-2.9-9.5-3.2-14.6-1.9c-1.2,0.3-2.3,0.7-3.4,1.3c-0.7,0.1-1.2,0.3-1.7,0.8c-1,0.2-1.9,0.6-2.8,1.4
	c2.2,1.3,4.5,2.1,6.8,2.9c0.3,0.4,0.6,0.8,1.2,0.5l-0.1,0c0.7,1.1,1.9,1.5,2.9,2.2c0.2,0.4,0.4,0.6,0.9,0.6c0,0-0.1,0-0.1,0
	c1.2,1.4,2.4,2.8,3.6,4.1c0.7,1.1,1.3,2.1,2,3.2c0.2,0.9,0.9,1.8,0.6,2.8c-0.7-0.4-1.3-0.8-2-1.2c-3-4.1-7.3-5.3-12.1-5.3
	c0,0,0.1,0,0,0c-0.2-0.2-0.5-0.2-0.7-0.1c-1,0.1-2.1,0.1-3.1,0.2c-1.3,0.2-2.6,0.3-3.8,0.8c-1,0.2-2,0.3-3.7,0.6
	c4.4,2.3,7.9,4.8,10.6,8.3c2.7,3.5,4.5,7.4,4.8,12.1c-5.1-9.7-13.6-11.2-23.8-10.4c7.3,6.2,11.4,13.5,10.6,23.2
	c-3-10.5-10.9-14.1-21.1-15.2c6,7.6,8.3,15.8,5.5,25.1c-0.6-10.9-7.4-16.3-16.8-19.4c-0.1-0.1-0.3-0.3-0.3-0.3
	c-0.3,0.2-0.2,0.4,0,0.6c2.7,5.8,4,11.9,2.6,18.3c-0.5,2.3-1.5,4.5-2.7,6.7c1.7-10.9-4.1-17.4-12.9-22.6c0.3,2.1,0.7,3.8,0.8,5.6
	C264.4,384.3,263.1,390.8,258.1,396.2L258.1,396.2z"/>
<g id="Layer_2_copy">
	<path class="st3" d="M265,125.8c0,4.3-1.3,8.6-2.4,12.8c-1.8,6.9-3.2,14-3.7,21.1c-0.1,1.3-0.5,1.7-1.7,1.5c-0.4,0-0.7-0.1-1.1,0
		c-2.1,0.4-2.7-0.5-2.9-2.6c-0.9-8.2-3.1-16.2-5.3-24.1c-2.3-8-1.8-15.6,3-22.6c4.4-6.4,5.6-5.7,9.7-0.2
		C263.6,115.8,265.2,120.4,265,125.8z"/>
	<path class="st3" d="M273.4,156.8c1.4-1.7,1.9-3.5,1.7-5.4c-0.3-3.1-2.3-4.1-4.9-2.5c-1.8,1.1-3,2.8-4.1,4.6
		c-1,1.8-1.6,3.8-2.1,5.8c-0.5,1.6-1.7,2.3-3.3,1.8c-0.8-0.2-0.5-0.7-0.5-1.2c0.9-6.5,2.4-12.8,5.8-18.5c1.7-2.9,3.9-5.3,7-6.8
		c3.2-1.6,6.4-2.3,9.6-0.1c3.2,2.2,4,5.5,3.7,9.1C285.9,149.8,280,155.9,273.4,156.8z"/>
	<path class="st3" d="M238.4,157.1c-6.3-2.4-11.1-5.6-12.5-12.2c-1.2-5.9,2-11.2,7.3-11.5c3.5-0.2,6.4,1.2,9,3.5
		c4.4,3.9,6.4,9.1,7.9,14.5c0.8,2.7,1.4,5.4,1.6,8.2c0,0.6,0.8,1.6-0.5,1.6c-1,0-2.5,0.9-3-1.1c-0.4-1.6-0.8-3.2-1.4-4.7
		c-1-2.6-2.5-4.9-4.9-6.4c-2.6-1.7-4.6-0.7-4.9,2.4C236.7,153.3,237.4,155,238.4,157.1z"/>
	<path class="st3" d="M268.2,174.1c-3.2,0.2-6.3,0.1-9.6-0.9c0.2,2.8,0.9,5.4,0.2,8c-0.3,1.3-0.6,2.6-1.2,3.9
		c-0.3,0.7-0.5,1.6-1.5,1.6c-0.9-0.1-1.2-0.9-1.5-1.6c-0.9-2.2-1.4-4.5-1.3-6.9c0-1.6,0.2-3.1,0.3-4.9c-3.3,1.1-6.5,1.2-10.2,0.9
		c1.4-1,2.6-1.9,3.7-2.8c1.3-1.1,2.4-2.3,3-3.9c0.5-1.5,1.5-1.9,2.9-1.8c2.4,0.1,4.7,0,7.1,0c0.7,0,1.4,0,1.7,0.9
		C262.9,169.9,265.3,172.2,268.2,174.1z"/>
	<path class="st3" d="M256,162.6c2.8,0,5.6,0,8.4,0c0.5,0,1.2-0.2,1.3,0.7c0.1,1.1-0.7,0.9-1.3,0.9c-5.5,0-11,0-16.6,0
		c-0.5,0-1.3,0.2-1.3-0.7c-0.1-1,0.8-0.8,1.4-0.9C250.6,162.6,253.3,162.6,256,162.6C256,162.6,256,162.6,256,162.6"/>
</g>
<g id="Layer_2_copy_3">
	<path class="st3" d="M85,125.8c0,4.3-1.3,8.6-2.4,12.8c-1.8,6.9-3.2,14-3.7,21.1c-0.1,1.3-0.5,1.7-1.7,1.5c-0.4,0-0.7-0.1-1.1,0
		c-2.1,0.4-2.7-0.5-2.9-2.6c-0.9-8.2-3.1-16.2-5.3-24.1c-2.3-8-1.8-15.6,3-22.6c4.4-6.4,5.6-5.7,9.7-0.2
		C83.6,115.8,85.2,120.4,85,125.8z"/>
	<path class="st3" d="M93.4,156.8c1.4-1.7,1.9-3.5,1.7-5.4c-0.3-3.1-2.3-4.1-4.9-2.5c-1.8,1.1-3,2.8-4.1,4.6c-1,1.8-1.6,3.8-2.1,5.8
		c-0.5,1.6-1.7,2.3-3.3,1.8c-0.8-0.2-0.5-0.7-0.5-1.2c0.9-6.5,2.4-12.8,5.8-18.5c1.7-2.9,3.9-5.3,7-6.8c3.2-1.6,6.4-2.3,9.6-0.1
		c3.2,2.2,4,5.5,3.7,9.1C105.9,149.8,100,155.9,93.4,156.8z"/>
	<path class="st3" d="M58.4,157.1c-6.3-2.4-11.1-5.6-12.5-12.2c-1.2-5.9,2-11.2,7.3-11.5c3.5-0.2,6.4,1.2,9,3.5
		c4.4,3.9,6.4,9.1,7.9,14.5c0.8,2.7,1.4,5.4,1.6,8.2c0,0.6,0.8,1.6-0.5,1.6c-1,0-2.5,0.9-3-1.1c-0.4-1.6-0.8-3.2-1.4-4.7
		c-1-2.6-2.5-4.9-4.9-6.4c-2.6-1.7-4.6-0.7-4.9,2.4C56.7,153.3,57.4,155,58.4,157.1z"/>
	<path class="st3" d="M88.2,174.1c-3.2,0.2-6.3,0.1-9.6-0.9c0.2,2.8,0.9,5.4,0.2,8c-0.3,1.3-0.6,2.6-1.2,3.9
		c-0.3,0.7-0.5,1.6-1.5,1.6c-0.9-0.1-1.2-0.9-1.5-1.6c-0.9-2.2-1.4-4.5-1.3-6.9c0-1.6,0.2-3.1,0.3-4.9c-3.3,1.1-6.5,1.2-10.2,0.9
		c1.4-1,2.6-1.9,3.7-2.8c1.3-1.1,2.4-2.3,3-3.9c0.5-1.5,1.5-1.9,2.9-1.8c2.4,0.1,4.7,0,7.1,0c0.7,0,1.4,0,1.7,0.9
		C82.9,169.9,85.3,172.2,88.2,174.1z"/>
	<path class="st3" d="M76,162.6c2.8,0,5.6,0,8.4,0c0.5,0,1.2-0.2,1.3,0.7c0.1,1.1-0.7,0.9-1.3,0.9c-5.5,0-11,0-16.6,0
		c-0.5,0-1.3,0.2-1.3-0.7c-0.1-1,0.8-0.8,1.4-0.9C70.6,162.6,73.3,162.6,76,162.6C76,162.6,76,162.6,76,162.6"/>
</g>
<g id="Layer_2_copy_2">
	<path class="st3" d="M445,125.8c0,4.3-1.3,8.6-2.4,12.8c-1.8,6.9-3.2,14-3.7,21.1c-0.1,1.3-0.5,1.7-1.7,1.5c-0.4,0-0.7-0.1-1.1,0
		c-2.1,0.4-2.7-0.5-2.9-2.6c-0.9-8.2-3.1-16.2-5.3-24.1c-2.3-8-1.8-15.6,3-22.6c4.4-6.4,5.6-5.7,9.7-0.2
		C443.6,115.8,445.2,120.4,445,125.8z"/>
	<path class="st3" d="M453.4,156.8c1.4-1.7,1.9-3.5,1.7-5.4c-0.3-3.1-2.3-4.1-4.9-2.5c-1.8,1.1-3,2.8-4.1,4.6
		c-1,1.8-1.6,3.8-2.1,5.8c-0.5,1.6-1.7,2.3-3.3,1.8c-0.8-0.2-0.5-0.7-0.5-1.2c0.9-6.5,2.4-12.8,5.8-18.5c1.7-2.9,3.9-5.3,7-6.8
		c3.2-1.6,6.4-2.3,9.6-0.1c3.2,2.2,4,5.5,3.7,9.1C465.9,149.8,460,155.9,453.4,156.8z"/>
	<path class="st3" d="M418.4,157.1c-6.3-2.4-11.1-5.6-12.5-12.2c-1.2-5.9,2-11.2,7.3-11.5c3.5-0.2,6.4,1.2,9,3.5
		c4.4,3.9,6.4,9.1,7.9,14.5c0.8,2.7,1.4,5.4,1.6,8.2c0,0.6,0.8,1.6-0.5,1.6c-1,0-2.5,0.9-3-1.1c-0.4-1.6-0.8-3.2-1.4-4.7
		c-1-2.6-2.5-4.9-4.9-6.4c-2.6-1.7-4.6-0.7-4.9,2.4C416.7,153.3,417.4,155,418.4,157.1z"/>
	<path class="st3" d="M448.2,174.1c-3.2,0.2-6.3,0.1-9.6-0.9c0.2,2.8,0.9,5.4,0.2,8c-0.3,1.3-0.6,2.6-1.2,3.9
		c-0.3,0.7-0.5,1.6-1.5,1.6c-0.9-0.1-1.2-0.9-1.5-1.6c-0.9-2.2-1.4-4.5-1.3-6.9c0-1.6,0.2-3.1,0.3-4.9c-3.3,1.1-6.5,1.2-10.2,0.9
		c1.4-1,2.6-1.9,3.7-2.8c1.3-1.1,2.4-2.3,3-3.9c0.5-1.5,1.5-1.9,2.9-1.8c2.4,0.1,4.7,0,7.1,0c0.7,0,1.4,0,1.7,0.9
		C442.9,169.9,445.3,172.2,448.2,174.1z"/>
	<path class="st3" d="M436,162.6c2.8,0,5.6,0,8.4,0c0.5,0,1.2-0.2,1.3,0.7c0.1,1.1-0.7,0.9-1.3,0.9c-5.5,0-11,0-16.6,0
		c-0.5,0-1.3,0.2-1.3-0.7c-0.1-1,0.8-0.8,1.4-0.9C430.6,162.6,433.3,162.6,436,162.6C436,162.6,436,162.6,436,162.6"/>
</g>
</svg>
