<svg xmlns="http://www.w3.org/2000/svg" viewBox="0 0 2091.9 440.53">
  <path fill="currentColor" d="M579,315.07q-24.48-14.24-37.76-40.63T528,212.85q0-35.19,13.27-61.59T579,110.63q24.46-14.22,57.1-14.23,35.52,0,61.11,16.79T735,161.66l-36.79,14.4Q690.8,155.27,675,144.87t-38.88-10.4q-32.31,0-50.23,20.31T568,212.53q0,37.42,17.91,58.07t50.23,20.63q23,0,39-10.71t23-31.84l37.43,14.08q-11.83,32.31-37.75,49.43T636.09,329.3Q603.47,329.3,579,315.07Zm203.79,1.6a73.35,73.35,0,0,1-27.67-29.92,89.67,89.67,0,0,1-9.6-41.27,88.78,88.78,0,0,1,9.6-41.11,73.66,73.66,0,0,1,27.67-29.75q18.08-11,41.75-11t41.59,11a75.15,75.15,0,0,1,27.68,29.75,91.8,91.8,0,0,1,0,82.38,74.81,74.81,0,0,1-27.68,29.92q-17.91,11-41.59,11T782.78,316.67Zm72.31-36.31q10.06-13.75,10.07-34.88t-10.07-34.71q-10.08-13.59-30.56-13.6T794,210.77q-10.08,13.6-10.08,34.71T794,280.36q10.08,13.75,30.55,13.75T855.09,280.36Zm190.19-107.82-18.56,33.91a34.3,34.3,0,0,0-19.19-5.44q-34.87,0-34.87,44.15v79.35H934.27V166.78H973v26.87a42.57,42.57,0,0,1,16.47-22.07,44.63,44.63,0,0,1,25.76-8A56.14,56.14,0,0,1,1045.28,172.54ZM1080,316.67a73.31,73.31,0,0,1-27.68-29.92,89.67,89.67,0,0,1-9.6-41.27,88.78,88.78,0,0,1,9.6-41.11A73.62,73.62,0,0,1,1080,174.62q18.06-11,41.75-11t41.59,11A75.19,75.19,0,0,1,1191,204.37a91.8,91.8,0,0,1,0,82.38,74.86,74.86,0,0,1-27.67,29.92q-17.92,11-41.59,11T1080,316.67Zm72.3-36.31q10.08-13.75,10.08-34.88t-10.08-34.71q-10.08-13.59-30.55-13.6t-30.56,13.6q-10.07,13.6-10.07,34.71t10.07,34.88q10.08,13.75,30.56,13.75T1152.3,280.36ZM1358.65,179.1q14.55,15.53,14.56,43.67V324.51h-38.39V232.37q0-14.4-5.12-24.8t-24-10.4q-16.64,0-24.47,9.44a43.4,43.4,0,0,0-9.6,22.4,248.7,248.7,0,0,0-1.76,32.47v63h-38.39V166.78h38.39V185a48.5,48.5,0,0,1,20.32-16.16,68.66,68.66,0,0,1,27.35-5.28Q1344.09,163.58,1358.65,179.1Zm166.36,1q18.08,16.49,18.08,44.95v99.5H1507.9L1504.7,304A47.53,47.53,0,0,1,1485,321.47a63.12,63.12,0,0,1-28.31,6.24,64,64,0,0,1-29.28-6.56,49.92,49.92,0,0,1-20.31-18.4,49.22,49.22,0,0,1-7.36-26.55q0-14.08,6.08-24.32a37.63,37.63,0,0,1,17.59-15.35q15.36-7,41.92-7h39.35V225q0-12.8-8-20.32t-21.76-7.52a46.53,46.53,0,0,0-23,6.08,63,63,0,0,0-19.52,17.6l-27.83-23.36q28.14-33.9,71-33.91Q1506.93,163.58,1525,180.06Zm-32.63,104.29q12.31-10.71,12.32-26.07h-34.24q-18.56,0-25.91,5.44-6.4,4.48-6.4,13.12a15.78,15.78,0,0,0,6.56,13.27q6.55,5,18.08,5Q1480.05,295.07,1492.38,284.35Zm140.93-146h-69.75V101.52h179.8v36.79h-69.74v186.2h-40.31Zm218,41.75q18.06,16.49,18.07,44.95v99.5h-35.19L1831,304a47.44,47.44,0,0,1-19.67,17.44,63.13,63.13,0,0,1-28.32,6.24,63.92,63.92,0,0,1-29.27-6.56,49.94,49.94,0,0,1-20.32-18.4,49.22,49.22,0,0,1-7.36-26.55q0-14.08,6.08-24.32a37.6,37.6,0,0,1,17.6-15.35q15.36-7,41.91-7H1831V225q0-12.8-8-20.32t-21.75-7.52a46.54,46.54,0,0,0-23,6.08,63,63,0,0,0-19.51,17.6l-27.84-23.36q28.15-33.9,71-33.91Q1833.26,163.58,1851.34,180.06ZM1818.7,284.35Q1831,273.64,1831,258.28h-34.23q-18.55,0-25.92,5.44-6.4,4.48-6.39,13.12a15.77,15.77,0,0,0,6.55,13.27q6.56,5,18.08,5Q1806.39,295.07,1818.7,284.35Zm209.72-111q15,9.76,23.51,28.31t8.48,43.83q0,36.48-17.6,59.35t-49,22.88a71.22,71.22,0,0,1-25.59-4.64,45.67,45.67,0,0,1-19.84-14.24v15.68H1910v-223h38.39v81.26a49.45,49.45,0,0,1,19.68-14.08,66.51,66.51,0,0,1,25.75-5.12Q2013.38,163.58,2028.42,173.34ZM2012.74,280.2q9.27-12,9.28-34.4,0-22.71-9.44-35t-28.31-12.32q-19.51,0-29.44,13.12t-9.91,34.23q0,20.81,9.91,33.6t29.76,12.79Q2003.46,292.19,2012.74,280.2Z"/>
  <path fill="currentColor" d="M188.41,424.06a44,44,0,0,1-6.83-.54c-10.56-1.66-19.06-4.63-26-9.07-10.91-7-21.74-14.28-32.21-21.34-14.4-9.72-29.3-19.76-44.18-28.8C38.28,339.48,17.35,301.3,17,250.83c-.31-43-.24-86.64-.17-128.87q0-25.83.06-51.67c0-28.89,20.2-49.13,49.12-49.21,28.25-.07,57-.06,84.71,0h35.4c11.2,0,22.36,0,33.54,0,28.16,0,57.28,0,85.9-.06h.21c20,0,35.77,9.27,44.42,26.12a45.75,45.75,0,0,1,5.05,20.34c0,16.06.14,32.41.23,48.22.28,46.59.57,94.77-.54,142.27-1.06,45.08-21.47,81.19-59,104.41-18.24,11.29-36.49,23.62-54.13,35.56q-9.53,6.43-19.08,12.85l-.56.38C213.83,416.71,202.85,424.06,188.41,424.06ZM117,61c-16.94,0-34,0-50.9.06-7,0-9.23,2.26-9.23,9.22q0,25.86-.06,51.73c-.07,42.13-.14,85.71.17,128.51.27,36.66,13.92,62,43,79.58,15.7,9.53,31,19.85,45.79,29.82,10.27,6.93,20.89,14.1,31.4,20.82,1.21.78,4.21,2.23,10.66,3.25,2.4.37,7.33-2.91,12.08-6.1l.58-.39q9.48-6.33,18.91-12.74c18-12.15,36.56-24.72,55.49-36.43,26.21-16.22,39.31-39.55,40.06-71.34,1.1-46.91.81-94.79.53-141.09-.09-15.84-.19-32.23-.23-48.36a6.4,6.4,0,0,0-.64-2.18c-1.16-2.25-2.25-4.38-8.81-4.38h-.1c-28.7.09-57.86.08-86.05.06H150.68ZM256,223.08a1.74,1.74,0,0,1,1.45-1.11q23.32-4.38,46.67-8.8c1.09-.2,2.17-.5,3.56-.84-.72-.38-1.11-.61-1.51-.8q-17.49-8.25-35-16.48c-3.45-1.63-6.85-3.36-10.27-5a4.72,4.72,0,0,1-2.61-3.37c-1.27-4.75-2.73-9.46-4.21-14.15a2.09,2.09,0,0,1,.35-2.31q11.11-13.66,22.16-27.38c.37-.46.7-.93,1.05-1.4a40.54,40.54,0,0,0-5.77,1q-15.74,3.68-31.47,7.35a1.85,1.85,0,0,1-1.44-.23c-2.46-2.28-4.89-4.6-7.26-7a2.49,2.49,0,0,1-.55-1.74c.55-5.2,1.17-10.39,1.79-15.58,1-8.81,2.1-17.62,3.13-26.44.38-3.22.71-6.45,1.1-10-.85.81-1.47,1.34-2,1.94q-16.53,18-33,35.93a4.46,4.46,0,0,1-4.27,1.78c-5-.52-10-.63-15-.83a2.15,2.15,0,0,1-2.1-1.3Q170,106.39,159.28,86.55c-.23-.42-.47-.82-.88-1.53-.19.82-.33,1.28-.39,1.75-1.33,11.2-2.63,22.4-4,33.6q-.9,7.41-2,14.79a3.14,3.14,0,0,1-1.25,1.82c-2.11,1.47-4.34,2.76-6.45,4.22a2.28,2.28,0,0,1-2.58.19q-20.18-9.39-40.39-18.68c-.39-.18-.8-.3-1.5-.57,1.2,2.21,2.2,4.11,3.25,6q9.75,17.42,19.54,34.81a2.55,2.55,0,0,1,.08,2.66c-1.11,2.27-2.18,4.56-3.08,6.92a2.36,2.36,0,0,1-1.89,1.66q-21.82,4.94-43.64,9.91c-3.37.77-6.75,1.51-10.37,2.32.57.29.89.47,1.22.62,3.18,1.43,6.35,2.87,9.53,4.28l38.72,17.23c.66.3,1.3.5,1.49,1.45a81.63,81.63,0,0,0,2.59,11.12c1.1,3.12.33,5.17-1.75,7.47-9.45,10.42-18.76,21-28.12,31.47l-4.23,4.79c1-.18,1.68-.28,2.35-.42q25.29-5.37,50.59-10.71a2.35,2.35,0,0,1,1.66.41c2.18,1.65,4.21,3.52,6.46,5.06a3.43,3.43,0,0,1,1.65,3.42c-.34,6.09-.6,12.18-1,18.27-.49,8.15-1,16.31-1.55,24.46l.25.16c.43-.49.88-1,1.29-1.46q12.63-15.63,25.25-31.28a2.58,2.58,0,0,1,2.66-1.11,55.36,55.36,0,0,0,8.64,1c2.44,0,3.58.93,4.77,2.88,9.26,15.14,18.64,30.2,28,45.29.33.53.74,1,1.11,1.52a5,5,0,0,0,.38-1.94q.67-21.78,1.37-43.55c.1-3.28.32-6.55.56-9.82a2,2,0,0,1,.8-1.34c3.76-2.26,7.6-4.39,11.33-6.71a3.59,3.59,0,0,1,3.85-.3c9.58,4.37,19.2,8.64,28.8,13l1.63.7.27-.27c-.44-1.09-.83-2.21-1.34-3.27q-7-14.38-13.92-28.76a2.26,2.26,0,0,1-.09-1.69C251.3,233.22,253.7,228.17,256,223.08Zm-105.39-48.5a7,7,0,0,1,6.89-7.1c3.72-.16,6.93,3.24,7,7s-2.83,6.69-6.92,6.73A6.74,6.74,0,0,1,150.62,174.58Zm29.46,54.19a10.82,10.82,0,0,1-9.85,6.47,12.08,12.08,0,0,1-9.49-3.92,10.22,10.22,0,0,1,.57-14.72,12,12,0,0,1,17.44.88C181.64,220.91,182,224.79,180.08,228.77Zm25-30.81a9.09,9.09,0,0,1-9.27-9,9.55,9.55,0,0,1,9.46-9.39,9.17,9.17,0,0,1,9,9.21A9,9,0,0,1,205.11,198Z"/>
</svg>
